<svg width="87" height="26" fill="none" xmlns="http://www.w3.org/2000/svg"><g clip-path="url(#clip0)" fill-rule="evenodd" clip-rule="evenodd"><path d="M54.028 20.333C49.031 24.028 41.787 26 35.55 26c-8.745 0-16.617-3.245-22.573-8.642-.468-.424-.049-1.002.513-.672 6.427 3.752 14.375 6.01 22.584 6.01 5.537 0 11.628-1.15 17.228-3.535.846-.36 1.554.556.726 1.172z" fill="#F90"/><path d="M56.106 17.948c-.637-.819-4.223-.387-5.833-.195-.49.06-.565-.368-.123-.676 2.856-2.017 7.543-1.435 8.09-.759.546.68-.143 5.393-2.827 7.643-.411.345-.804.161-.621-.297.603-1.51 1.954-4.894 1.314-5.716z" fill="#F90"/><path d="M50.386 2.84V.878c0-.297.224-.496.494-.496h8.749c.28 0 .505.203.505.496v1.679c-.004.281-.24.65-.659 1.232l-4.533 6.493c1.684-.041 3.462.21 4.99 1.074.344.195.438.48.464.763v2.091c0 .286-.314.62-.644.447-2.692-1.415-6.267-1.57-9.243.015-.303.166-.621-.165-.621-.45v-1.987c0-.32.004-.864.322-1.348l5.252-7.557h-4.57c-.282 0-.506-.199-.506-.492zM18.472 15.071h-2.661a.503.503 0 01-.476-.454V.913a.5.5 0 01.513-.492h2.482c.258.01.464.21.483.458V2.67h.049C19.509.94 20.726.131 22.366.131c1.665 0 2.706.808 3.455 2.54C26.465.938 27.928.13 29.497.13c1.116 0 2.336.462 3.08 1.499.843 1.153.671 2.828.671 4.296l-.004 8.65a.503.503 0 01-.513.495h-2.658a.507.507 0 01-.479-.496V7.312c0-.578.053-2.02-.075-2.569-.198-.92-.793-1.179-1.564-1.179-.644 0-1.318.432-1.591 1.123-.274.69-.247 1.848-.247 2.625v7.263a.504.504 0 01-.513.496h-2.658a.504.504 0 01-.48-.496l-.003-7.263c0-1.528.25-3.778-1.64-3.778-1.913 0-1.838 2.193-1.838 3.778v7.263a.503.503 0 01-.513.496M67.666.131c3.95 0 6.087 3.403 6.087 7.73 0 4.18-2.362 7.496-6.087 7.496-3.878 0-5.99-3.403-5.99-7.643 0-4.266 2.138-7.583 5.99-7.583zm.022 2.798c-1.961 0-2.085 2.682-2.085 4.353 0 1.675-.026 5.25 2.063 5.25 2.063 0 2.16-2.884 2.16-4.642 0-1.156-.049-2.538-.397-3.635-.3-.954-.895-1.326-1.74-1.326zm11.186 12.142h-2.65a.507.507 0 01-.48-.496L75.742.867a.504.504 0 01.513-.446h2.467a.51.51 0 01.475.383v2.095h.049c.745-1.874 1.79-2.768 3.627-2.768 1.194 0 2.359.432 3.107 1.615.697 1.097.697 2.94.697 4.267v8.626a.512.512 0 01-.513.432h-2.67a.505.505 0 01-.471-.432V7.196c0-1.499.172-3.692-1.666-3.692-.648 0-1.243.436-1.539 1.097-.374.837-.423 1.67-.423 2.595v7.38a.512.512 0 01-.52.495M43.412 8.525c0 1.04.026 1.908-.498 2.832-.423.751-1.097 1.213-1.842 1.213-1.022 0-1.621-.781-1.621-1.934 0-2.276 2.033-2.69 3.96-2.69v.58zm2.684 6.509a.554.554 0 01-.63.063c-.883-.736-1.044-1.077-1.527-1.78-1.46 1.495-2.496 1.942-4.387 1.942-2.242 0-3.983-1.386-3.983-4.161 0-2.167 1.168-3.643 2.837-4.364 1.446-.639 3.463-.751 5.006-.928v-.345c0-.635.048-1.386-.326-1.934-.322-.492-.944-.695-1.494-.695-1.014 0-1.916.522-2.137 1.603-.045.24-.221.477-.465.489l-2.579-.278c-.217-.05-.46-.226-.397-.56C36.606.946 39.436 0 41.967 0c1.295 0 2.987.346 4.009 1.33 1.295 1.213 1.172 2.831 1.172 4.593v4.16c0 1.251.516 1.8 1.003 2.476.168.24.206.53-.011.71-.543.454-1.509 1.299-2.04 1.772l-.004-.007M8.518 8.525c0 1.04.026 1.908-.498 2.832-.423.751-1.093 1.213-1.841 1.213-1.022 0-1.618-.781-1.618-1.934 0-2.276 2.033-2.69 3.957-2.69v.58zm2.684 6.509a.554.554 0 01-.629.063c-.883-.736-1.04-1.077-1.527-1.78-1.46 1.495-2.493 1.942-4.387 1.942-2.239 0-3.983-1.386-3.983-4.161 0-2.167 1.171-3.643 2.837-4.364 1.445-.639 3.463-.751 5.005-.928v-.345c0-.635.049-1.386-.322-1.934-.325-.492-.947-.695-1.493-.695-1.015 0-1.92.522-2.142 1.603-.045.24-.22.477-.46.489l-2.583-.278c-.217-.05-.457-.226-.397-.56C1.716.946 4.543 0 7.073 0c1.295 0 2.988.346 4.01 1.33 1.295 1.213 1.171 2.831 1.171 4.593v4.16c0 1.251.517 1.8 1.004 2.476.172.24.21.53-.008.71-.543.454-1.509 1.299-2.04 1.772l-.008-.007" fill="#000"/></g><defs><clipPath id="clip0"><path fill="#fff" transform="translate(.676)" d="M0 0h86v26H0z"/></clipPath></defs></svg>