<svg width="96" height="42" fill="none" xmlns="http://www.w3.org/2000/svg"><g clip-path="url(#clip0)"><path d="M17.082 14.402c-.6-1.126-1.32-1.93-2.24-2.494-.92-.563-2.001-.845-3.242-.845-1.64 0-3.041.604-4.162 1.81-1.12 1.208-1.68 2.736-1.68 4.546s.56 3.3 1.72 4.506c1.16 1.207 2.562 1.77 4.322 1.77 1.32 0 2.441-.281 3.322-.844.88-.564 1.56-1.449 1.96-2.575h5.203c-.64 2.615-1.881 4.626-3.722 6.115-1.84 1.488-4.082 2.212-6.763 2.212-1.56 0-3.001-.281-4.322-.844a10.775 10.775 0 01-3.601-2.495c-1-1.046-1.76-2.212-2.321-3.62-.6-1.328-.88-2.736-.88-4.144 0-1.488.24-2.897.76-4.184a10.991 10.991 0 012.28-3.5C4.838 8.65 6.039 7.764 7.439 7.161a10.982 10.982 0 014.442-.925c2.561 0 4.802.724 6.723 2.212 1.88 1.489 3.121 3.46 3.722 5.954h-5.243zM66.023 8.57V0h4.842v28.08h-4.842v-1.73c-.96.765-2 1.328-3.041 1.73-1.08.363-2.241.564-3.482.564-1.32 0-2.56-.201-3.761-.644-1.16-.442-2.241-1.046-3.162-1.85-1.28-1.127-2.24-2.414-2.92-3.943-.681-1.529-1.041-3.098-1.041-4.788 0-1.568.32-3.057.96-4.505.64-1.448 1.52-2.696 2.681-3.742A9.737 9.737 0 0155.54 7.08a10.827 10.827 0 013.961-.724c1.36 0 2.561.161 3.602.523 1 .362 2 .926 2.921 1.69zm-.2 8.971c0-1.81-.56-3.339-1.72-4.546-1.161-1.207-2.562-1.81-4.283-1.81-1.68 0-3.12.603-4.321 1.85-1.2 1.248-1.801 2.696-1.801 4.426 0 1.77.6 3.258 1.8 4.465 1.201 1.207 2.722 1.77 4.563 1.77 1.6 0 2.96-.603 4.081-1.81 1.08-1.126 1.681-2.615 1.681-4.345zm12.925 1.489c.16 1.529.76 2.735 1.801 3.62 1.04.886 2.401 1.328 4.042 1.328 1.12 0 2.08-.241 2.961-.684a5.675 5.675 0 002.081-1.93h5.282c-.88 2.292-2.24 4.102-4.002 5.39-1.8 1.287-3.841 1.93-6.202 1.93-1.56 0-3.001-.28-4.322-.844a10.245 10.245 0 01-3.561-2.494c-1-1.046-1.761-2.253-2.321-3.62a10.998 10.998 0 01-.84-4.185c0-1.488.24-2.856.76-4.184.52-1.287 1.24-2.494 2.24-3.5 1.081-1.126 2.281-2.011 3.642-2.655 1.36-.603 2.761-.925 4.202-.925 1.84 0 3.521.402 5.122 1.247 1.6.845 2.921 2.011 4.042 3.54.68.925 1.16 1.931 1.52 3.058.32 1.126.48 2.414.48 3.902v1.046l-16.927-.04zm11.605-3.903c-.4-1.408-1.12-2.494-2.12-3.218-1.001-.724-2.242-1.126-3.762-1.126-1.28 0-2.481.402-3.522 1.207-1.04.804-1.72 1.85-2.08 3.137h11.484z" fill="#4A4A4F"/><path d="M24.446 17.38c0-1.489.28-2.897.8-4.265.56-1.327 1.32-2.534 2.36-3.58a10.45 10.45 0 013.602-2.454 10.547 10.547 0 014.162-.845c1.52 0 2.921.241 4.202.764 1.28.523 2.481 1.247 3.561 2.293a11.166 11.166 0 012.561 3.702c.6 1.408.92 2.816.92 4.304 0 1.61-.24 3.098-.8 4.425-.52 1.328-1.32 2.535-2.36 3.621-1.04 1.086-2.241 1.931-3.602 2.494-1.36.564-2.801.845-4.362.845-1.6 0-3.041-.282-4.322-.845-1.32-.563-2.48-1.408-3.561-2.534-1.04-1.127-1.8-2.334-2.321-3.661-.6-1.408-.84-2.776-.84-4.264zm5.042-.04c0 1.97.52 3.54 1.6 4.666 1.08 1.167 2.561 1.73 4.402 1.73 1.801 0 3.242-.604 4.322-1.77 1.08-1.167 1.6-2.736 1.6-4.747 0-1.77-.56-3.259-1.68-4.386-1.12-1.126-2.561-1.73-4.242-1.73-1.76 0-3.201.564-4.322 1.73-1.12 1.167-1.68 2.656-1.68 4.506zm19.088 16.373v-1.046h1.04v1.046h-1.04zm.04 8.207v-6.397h.92v6.397h-.92zm7.603 0v-3.943c0-1.126-.6-1.69-1.56-1.69-.961 0-1.561.564-1.561 1.69v3.943h-.92v-6.397h.92v.684c.44-.523 1.08-.764 1.8-.764.68 0 1.24.2 1.641.603.44.443.64 1.046.64 1.77v4.104h-.96zm5.442.08c-1.08 0-1.92-.241-2.6-.925l.64-.644c.52.523 1.2.724 1.96.724 1.04 0 1.68-.362 1.68-1.126 0-.563-.32-.885-1.04-.925l-1.04-.08c-1.24-.121-1.92-.645-1.92-1.73 0-1.167.96-1.851 2.32-1.851.92 0 1.721.241 2.281.684l-.6.603c-.44-.362-1.04-.523-1.68-.523-.921 0-1.441.402-1.441 1.046 0 .563.32.885 1.12.925l1.04.08c1.121.121 1.881.524 1.881 1.73 0 1.288-1.04 2.012-2.6 2.012zm6.323-.08c-1.08 0-1.64-.765-1.64-1.73v-3.943h-.801v-.724h.8v-2.011h.92v2.011h1.361v.724h-1.36v3.903c0 .563.28.925.88.925h.48v.804l-.64.04zm2.721-8.207v-1.046h1.04v1.046h-1.04zm.04 8.207v-6.397h.92v6.397h-.92zm5.322 0c-1.08 0-1.64-.765-1.64-1.73v-3.943h-.8v-.724h.8v-2.011h.92v2.011h1.36v.724h-1.36v3.903c0 .563.28.925.88.925h.48v.804l-.64.04zm6.763 0v-.724c-.44.523-1.08.804-1.8.804-.68 0-1.241-.2-1.641-.603-.44-.443-.64-1.046-.64-1.81v-4.064h.92v3.943c0 1.126.6 1.69 1.56 1.69.96 0 1.601-.564 1.601-1.69v-3.943h.92v6.397h-.92zm5.282 0c-1.08 0-1.64-.765-1.64-1.73v-3.943h-.8v-.724h.8v-2.011h.92v2.011h1.36v.724h-1.36v3.903c0 .563.28.925.88.925h.48v.804l-.64.04zm3.242-2.937c0 1.408.64 2.213 1.88 2.213.72 0 1.161-.242 1.681-.724l.64.563c-.64.643-1.24 1.005-2.32 1.005-1.681 0-2.762-1.005-2.762-3.258 0-2.052 1-3.259 2.602-3.259 1.64 0 2.6 1.207 2.6 3.098v.442l-4.321-.08zm3.161-1.77c-.24-.563-.8-.966-1.48-.966-.68 0-1.241.362-1.481.966-.16.362-.16.563-.2 1.046h3.361c-.04-.483-.04-.684-.2-1.046z" fill="#E84610"/></g><defs><clipPath id="clip0"><path fill="#fff" transform="translate(.676)" d="M0 0h95v42H0z"/></clipPath></defs></svg>