<svg width="145" height="20" fill="none" xmlns="http://www.w3.org/2000/svg"><g clip-path="url(#clip0)"><path d="M2.594 7.055H1.457c-.39 0-.604-.146-.604-.546 0-.363.213-.545.604-.545h1.137V4.946c0-1.782.888-2.691 2.628-2.691.675 0 1.279.145 1.776.4.604.4.888.945.888 1.6 0 .472-.142.654-.497.654a.535.535 0 01-.533-.4c-.142-.473-.284-.763-.39-.873-.214-.254-.64-.4-1.244-.4-1.101 0-1.563.546-1.563 1.6v1.019h2.06c.462 0 .675.145.675.545 0 .364-.248.546-.675.546H3.66v6.727c0 .4-.142.618-.497.618s-.497-.218-.497-.618l-.071-6.618zm9.199 6.145V7.091h-1.527c-.427 0-.64-.145-.64-.545 0-.364.213-.546.64-.546h2.024c.356 0 .533.291.533.91.64-.692 1.279-1.055 2.025-1.055.603 0 1.03.145 1.385.545s.497.873.497 1.455c0 .4-.142.618-.497.618-.213 0-.355-.146-.462-.4-.142-.51-.248-.764-.248-.8-.143-.255-.462-.4-.782-.4-.39 0-.781.145-1.101.473-.213.145-.497.472-.852.945v4.91h1.918c.461 0 .639.144.639.508s-.213.546-.64.546h-4.44c-.461 0-.639-.146-.639-.546 0-.364.213-.545.64-.545h1.563l-.036.036zm7.708-2.909v1.164c0 1.272.852 1.854 2.557 1.854.64 0 1.137-.036 1.527-.218.213-.036.533-.255 1.03-.618.285-.291.533-.437.64-.437.284 0 .462.146.462.437 0 .29-.214.654-.64 1.018-.675.545-1.74.873-3.055.873-2.38 0-3.551-.946-3.551-2.946V8.546c0-.655.248-1.273.745-1.71.64-.654 1.634-.945 2.913-.945 2.309 0 3.445 1.2 3.445 3.6 0 .618-.248.873-.639.873l-5.434-.073zm0-1.055h5.079c0-1.563-.852-2.363-2.557-2.363-.64 0-1.173.145-1.74.473-.498.4-.782.8-.782 1.309v.581zm8.915 1.055v1.164c0 1.272.852 1.854 2.557 1.854.64 0 1.137-.036 1.528-.218.213-.036.532-.255 1.03-.618.284-.291.532-.437.64-.437.283 0 .46.146.46.437 0 .29-.212.654-.639 1.018-.674.545-1.74.873-3.054.873-2.38 0-3.552-.946-3.552-2.946V8.546c0-.655.249-1.273.746-1.71.64-.654 1.634-.945 2.912-.945 2.31 0 3.446 1.2 3.446 3.6 0 .618-.249.873-.64.873l-5.434-.073zm0-1.055h5.08c0-1.563-.853-2.363-2.558-2.363-.64 0-1.172.145-1.74.473-.533.4-.782.8-.782 1.309v.581zm7.956 1.782V6.473c0-2.437 1.243-3.6 3.694-3.6.995 0 1.776.254 2.416.654.674.546 1.03 1.31 1.03 2.291 0 .473-.142.655-.533.655-.249 0-.462-.218-.533-.655-.035-.363-.213-.69-.39-1.018-.285-.618-.995-.873-2.06-.873-.889 0-1.564.255-1.99.691-.426.437-.533 1.128-.533 2.073v3.782c0 1.018.214 1.709.604 2.109.462.473 1.101.763 1.99.763 1.385 0 2.166-.509 2.379-1.454.107-.4.107-.546.107-.618.106-.218.248-.291.461-.291.355 0 .533.254.533.654 0 .91-.39 1.6-1.101 2.182-.604.4-1.35.618-2.309.618-1.136 0-2.024-.254-2.664-.8-.745-.618-1.1-1.527-1.1-2.618zm8.773.655V8.655c0-1.855 1.173-2.764 3.552-2.764 2.38 0 3.552.91 3.552 2.764v3.018c0 1.854-1.172 2.763-3.516 2.763-2.38-.036-3.587-.945-3.587-2.763zm6.074 0V8.655c0-1.164-.852-1.71-2.557-1.71-1.634 0-2.522.619-2.522 1.71v3.018c0 1.163.852 1.709 2.557 1.709 1.74-.037 2.522-.618 2.522-1.71zm8.844 1.709c-.497.4-.887.618-1.278.764-.39.145-.888.254-1.42.254-.924 0-1.741-.218-2.31-.618-.675-.473-1.03-1.164-1.03-2.11V8.547c0-.91.355-1.6.995-2.073.533-.4 1.35-.618 2.237-.618.604 0 1.102.036 1.492.218.391.145.853.4 1.279.8V3.09c0-.51.142-.764.497-.764s.533.255.533.764v10.764c0 .4-.142.545-.497.545-.213 0-.355-.109-.39-.364-.072-.145-.108-.363-.108-.654zm-.07-1.2V7.927c-.498-.4-.889-.654-1.244-.763-.461-.146-.888-.255-1.385-.255-.64 0-1.172.11-1.563.4-.497.291-.781.8-.781 1.382v2.945c0 .619.248 1.055.781 1.419.462.254.924.4 1.634.4.533 0 1.03-.11 1.42-.255.356-.327.747-.618 1.138-1.018zm3.942-1.891v1.164c0 1.272.853 1.854 2.558 1.854.639 0 1.136-.036 1.527-.218.213-.036.533-.255 1.03-.618.284-.291.533-.437.64-.437.283 0 .461.146.461.437 0 .29-.213.654-.64 1.018-.674.545-1.74.873-3.054.873-2.38 0-3.552-.946-3.552-2.946V8.546c0-.655.249-1.273.746-1.71.64-.654 1.634-.945 2.913-.945 2.308 0 3.445 1.2 3.445 3.6 0 .618-.249.873-.64.873l-5.434-.073zm0-1.055h5.08c0-1.563-.853-2.363-2.558-2.363-.64 0-1.172.145-1.74.473-.533.4-.782.8-.782 1.309v.581zm7.956 1.782V6.473c0-2.437 1.244-3.6 3.694-3.6.995 0 1.776.254 2.416.654.675.546 1.03 1.31 1.03 2.291 0 .473-.142.655-.533.655-.249 0-.462-.218-.533-.655-.035-.363-.213-.69-.39-1.018-.285-.618-.995-.873-2.06-.873-.889 0-1.564.255-1.99.691-.39.473-.532 1.128-.532 2.073v3.782c0 1.018.213 1.709.603 2.109.427.473 1.101.763 1.99.763 1.385 0 2.166-.509 2.38-1.454.106-.4.106-.546.106-.618.106-.218.248-.291.426-.291.355 0 .533.254.533.654 0 .91-.391 1.6-1.101 2.182-.604.4-1.35.618-2.31.618-1.136 0-2.024-.254-2.663-.8-.71-.618-1.066-1.527-1.066-2.618zm14.492 2.364c-.497.4-.888.654-1.172.764-.39.145-.852.254-1.385.254-.853 0-1.563-.145-2.131-.545-.64-.473-.924-1.055-.924-1.928 0-.872.355-1.527.995-2.036.532-.436 1.278-.655 2.166-.655.675 0 1.492.146 2.416.51v-1.31c0-.618-.284-1.054-.853-1.309a4.145 4.145 0 00-1.42-.254c-1.35 0-2.025.4-2.167 1.163a2.27 2.27 0 01-.107.546c-.106.145-.248.254-.462.254-.39 0-.532-.218-.532-.618 0-.545.213-1.054.639-1.527.497-.618 1.42-.873 2.77-.873 1.03 0 1.812.146 2.31.546.603.472.887 1.163.887 2.218v3.745c0 .437.107.764.249.873l.497.255a.59.59 0 01.249.509c0 .29-.142.472-.462.472-.106 0-.249 0-.462-.109-.39-.145-.639-.254-.675-.254-.248-.182-.355-.4-.426-.691zm-.035-1.091v-1.564c-.782-.254-1.563-.4-2.238-.4-1.527 0-2.273.51-2.273 1.528 0 .545.248.945.675 1.163.39.218.852.291 1.385.291.497 0 .923-.109 1.314-.29.284-.074.64-.328 1.137-.728zm3.978-5.564c.249-.29.497-.545.64-.654.248-.146.496-.255.887-.255.533 0 1.03.291 1.492.91.284-.364.533-.619.781-.692.249-.145.604-.218.995-.218 1.243 0 1.811.618 1.811 1.855v5.963c0 .51-.142.764-.532.764-.356 0-.498-.255-.498-.764v-5.6c0-.763-.284-1.163-.888-1.163-.461 0-.888.29-1.278.873v5.89c0 .51-.142.764-.498.764-.355 0-.497-.255-.497-.764V8.182c0-.873-.355-1.273-.994-1.273-.462 0-.853.291-1.244.873v5.927c0 .51-.142.764-.532.764-.356 0-.498-.255-.498-.764V6.436c0-.363.142-.545.462-.545.142 0 .284.11.39.29-.035.146 0 .4 0 .546zm9.235 0c.781-.618 1.74-.872 2.77-.872 2.167 0 3.197.945 3.197 2.763v3.018c0 .873-.284 1.564-.888 2.073-.533.473-1.279.655-2.238.655-1.101 0-2.024-.291-2.877-.91v3.491c0 .546-.142.8-.497.8s-.497-.254-.497-.8V6.655c0-.546.142-.8.426-.8.142 0 .284.109.39.29.072.219.107.437.214.582zm0 5.6c.746.655 1.634 1.018 2.664 1.018.639 0 1.172-.109 1.563-.4.497-.29.674-.763.674-1.309V8.618c0-.654-.248-1.054-.781-1.382-.391-.218-.923-.29-1.563-.29-.604 0-1.101.109-1.421.254-.355.146-.674.473-1.172.946v4.181h.036zm9.483-2.945c0-2.327.782-4.4 2.309-6.146.533-.654 1.03-1.018 1.35-1.018.106 0 .249 0 .284.11.107.108.142.145.142.29 0 .146-.213.437-.604.873-1.634 1.6-2.415 3.6-2.415 5.964 0 2.618.852 4.8 2.522 6.4.355.29.497.618.497.8 0 .109-.035.254-.142.29-.107.11-.213.146-.284.146-.391 0-.924-.473-1.634-1.418-1.385-1.673-2.025-3.746-2.025-6.291zm21.454.618c0 2.327-.781 4.4-2.309 6.145-.533.655-1.03 1.019-1.35 1.019-.106 0-.248 0-.284-.11a.442.442 0 01-.142-.29c0-.146.213-.473.604-.8 1.634-1.6 2.415-3.6 2.415-5.964 0-2.618-.852-4.8-2.521-6.4-.356-.29-.498-.618-.498-.8 0-.109.036-.254.142-.29.107-.11.213-.146.284-.146.391 0 .924.472 1.634 1.418 1.35 1.636 2.025 3.745 2.025 6.218zm-5.861 6.655h-9.803a.63.63 0 01-.604-.619c0-.363.249-.618.604-.618h9.803a.63.63 0 01.604.618c-.035.364-.213.619-.604.619zM117.676 3.49s.852.618.852 1.6c0 1.818-2.415 3.855-2.415 5.745 0 2.073 1.527 3.382 2.948 3.782.213.037.284-.218.035-.254-.604-.146-1.278-.946-1.278-2.219 0-1.163 1.101-1.6 1.527-2.181.462-.618.355-1.31.107-1.528-.249-.218-.107-.509.39-.145.462.364.888.945.746 1.564-.213.763.036 1.2.462 1.272.391.037.852-.145.781-.509-.035-.363-.248-.763-.142-.763.284 0 .888.69.888 1.818 0 1.127-.888 1.927-1.172 2.218-.142.145.036.4.284.29.107-.035.355-.217.497-.29.675-.51 1.812-1.564 1.812-3.527 0-2.073-.746-2.982-1.527-3.746-.746-.763-.924-.545-.746-.218.639 1.164.248 1.527-.213 1.527-.533 0-.604-1.309-.782-2.29-.497-2.219-2.415-2.582-2.77-2.582-.391.036-.746.218-.284.436z" fill="#006400"/></g><defs><clipPath id="clip0"><path fill="#fff" transform="translate(.676 2)" d="M0 0h130v16H0z"/></clipPath></defs></svg>