<svg width="78" height="24" fill="none" xmlns="http://www.w3.org/2000/svg"><path d="M26.307 13.361l-1.355-4.176.002.006-.002-.007L22.264.896A1.06 1.06 0 0021.248.17c-.465.003-.859.29-1.003.733l-2.552 7.866H9.641L7.084.902A1.045 1.045 0 006.082.17h-.006c-.458 0-.863.292-1.012.733l-2.681 8.28v.001l-.002.007.001-.006-1.359 4.176a1.524 1.524 0 00.552 1.706l11.737 8.538.005.003c.005.004.01.008.015.01a.045.045 0 01-.014-.01l.003.002.002.001a.584.584 0 00.056.035l.008.005.005.003.004.002h.003l.007.004.031.013.03.012.006.003.006.002h.002l.008.002.003.001c.015.004.03.008.044.01l.017.005h.002l.006.002.01.002h.008a.604.604 0 00.17 0h.009l.01-.002.005-.002h.002l.018-.004.043-.01.002-.002c.003 0 .006 0 .009-.002h.002l.007-.002.005-.002v-.001l.032-.013.03-.012.006-.003.003-.001.004-.002c.002 0 .003-.002.005-.003l.008-.005a.61.61 0 00.056-.034l.005-.003h.001l.006-.004 11.738-8.539a1.521 1.521 0 00.552-1.705zM21.255 1.673l2.302 7.096h-4.604l2.302-7.096zm1.9 8.296l-.94 1.205-6.928 8.889 3.277-10.094h4.59zm-10.06 13.336l.001.005-.002-.005zm-1.052-3.242L4.18 9.97h4.59l3.273 10.094zM6.075 1.673L8.38 8.769H3.777l2.298-7.096zM2.28 14.096a.325.325 0 01-.117-.364l1.01-3.104 7.404 9.504-8.297-6.036zm11.011 9.493l-.007-.006-.001-.001-.013-.012a.545.545 0 01-.025-.023l.002.002.003.002a.595.595 0 00.054.047l.003.002-.016-.011zm.373-2.412l-1.925-5.94L10.03 9.97h7.274l-3.64 11.208zm.395 2.393l-.014.012-.001.001-.007.006-.016.012.003-.003a.579.579 0 00.054-.046l.003-.002.002-.002a.582.582 0 01-.024.022zm10.991-9.474l-8.296 6.034 7.406-9.501 1.007 3.103a.325.325 0 01-.117.364zm29.636-8.205H53.05l.008 12.21h6.626v-1.51h-4.99l-.008-10.7zM65.99 15.958a2.79 2.79 0 01-2.027.856c-1.246 0-1.748-.616-1.748-1.42 0-1.21.84-1.788 2.626-1.788.338 0 .878.038 1.156.09v2.262h-.008zm-1.697-7.4c-1.32 0-2.536.465-3.482 1.254l.578 1.007c.668-.391 1.486-.782 2.664-.782 1.343 0 1.936.691 1.936 1.849v.593a7.451 7.451 0 00-1.133-.09c-2.866 0-4.322 1.007-4.322 3.11 0 1.886 1.155 2.833 2.904 2.833 1.178 0 2.311-.54 2.701-1.42l.3 1.195h1.156v-6.252c-.007-1.976-.863-3.298-3.302-3.298zm8.58 8.312c-.615 0-1.155-.075-1.56-.262v-5.643c.555-.466 1.245-.804 2.123-.804 1.583 0 2.191 1.12 2.191 2.93 0 2.57-.983 3.78-2.754 3.78zm.69-8.31c-1.463 0-2.25 1-2.25 1V7.982l-.008-2.088h-1.598l.007 11.908c.803.338 1.899.519 3.092.519 3.054 0 4.525-1.954 4.525-5.327-.008-2.668-1.366-4.433-3.767-4.433zM36.875 7.216c1.448 0 2.386.48 2.994.969l.705-1.225c-.953-.841-2.243-1.292-3.624-1.292-3.482 0-5.92 2.126-5.92 6.416 0 4.494 2.633 6.244 5.642 6.244a9.578 9.578 0 003.632-.706l-.037-4.801v-1.51h-4.465v1.51h2.851l.038 3.644c-.375.188-1.02.338-1.899.338-2.416 0-4.037-1.525-4.037-4.734-.007-3.268 1.666-4.853 4.12-4.853zM48.396 5.89h-1.599l.008 2.05v7.086c0 1.976.855 3.298 3.294 3.298.338 0 .668-.03.983-.09V16.8c-.233.038-.48.053-.743.053-1.343 0-1.936-.692-1.936-1.849V10.12h2.679V8.782h-2.679l-.007-2.892zM42.733 18.1h1.598V8.784h-1.599V18.1zm0-10.601h1.598v-1.6h-1.599v1.6z" fill="#231F20"/></svg>