<svg width="139" height="36" fill="none" xmlns="http://www.w3.org/2000/svg"><g clip-path="url(#clip0)"><path d="M63.273 18.872c0 4.025-3.159 6.991-7.035 6.991-3.876 0-7.035-2.966-7.035-6.991 0-4.054 3.159-6.992 7.035-6.992 3.876 0 7.035 2.938 7.035 6.992zm-3.08 0c0-2.515-1.83-4.237-3.955-4.237s-3.955 1.722-3.955 4.237c0 2.49 1.83 4.236 3.955 4.236s3.955-1.749 3.955-4.236z" fill="#EA4335"/><path d="M78.45 18.872c0 4.025-3.16 6.991-7.035 6.991-3.877 0-7.035-2.966-7.035-6.991 0-4.05 3.158-6.992 7.035-6.992 3.876 0 7.034 2.938 7.034 6.992zm-3.08 0c0-2.515-1.83-4.237-3.956-4.237-2.124 0-3.955 1.722-3.955 4.237 0 2.49 1.83 4.236 3.956 4.236 2.124 0 3.955-1.749 3.955-4.236z" fill="#FBBC05"/><path d="M92.993 12.303v12.552c0 5.163-3.054 7.272-6.664 7.272-3.4 0-5.445-2.267-6.216-4.12l2.68-1.113c.478 1.138 1.648 2.48 3.532 2.48 2.312 0 3.744-1.42 3.744-4.097v-1.005h-.108c-.689.848-2.017 1.588-3.693 1.588-3.506 0-6.718-3.045-6.718-6.963 0-3.946 3.212-7.017 6.718-7.017 1.673 0 3.001.741 3.693 1.564h.108v-1.138h2.924v-.003zm-2.706 6.594c0-2.462-1.647-4.262-3.744-4.262-2.124 0-3.904 1.8-3.904 4.262 0 2.437 1.78 4.211 3.904 4.211 2.097 0 3.744-1.774 3.744-4.21z" fill="#4285F4"/><path d="M97.815 4.946v20.489h-3.003V4.945h3.003z" fill="#34A853"/><path d="M109.52 21.173l2.39 1.589c-.771 1.138-2.63 3.098-5.843 3.098-3.983 0-6.959-3.07-6.959-6.991 0-4.158 3.001-6.992 6.615-6.992 3.639 0 5.419 2.888 6.001 4.448l.319.794-9.374 3.871c.717 1.403 1.833 2.119 3.398 2.119 1.569 0 2.656-.77 3.453-1.936zm-7.357-2.515l6.266-2.595c-.344-.873-1.381-1.481-2.602-1.481-1.565 0-3.743 1.377-3.664 4.076z" fill="#EA4335"/><path d="M37.833 17.053v-2.966H47.86a9.8 9.8 0 01.149 1.79c0 2.226-.61 4.978-2.577 6.938-1.913 1.986-4.357 3.045-7.594 3.045-6.002 0-11.048-4.873-11.048-10.856S31.835 4.148 37.837 4.148c3.32 0 5.684 1.299 7.461 2.991l-2.1 2.093c-1.273-1.191-3-2.118-5.365-2.118-4.382 0-7.81 3.521-7.81 7.89s3.428 7.89 7.81 7.89c2.843 0 4.462-1.138 5.499-2.172.84-.838 1.394-2.036 1.612-3.672l-7.11.003z" fill="#4285F4"/></g><defs><clipPath id="clip0"><path fill="#fff" transform="translate(26.675 4)" d="M0 0h86v29H0z"/></clipPath></defs></svg>