<svg width="77" height="50" fill="none" xmlns="http://www.w3.org/2000/svg"><g clip-path="url(#clip0)" fill="#0071C5"><path d="M23.171 21.247v12.12h-3.88V18.132l8.011.008c3.403 0 4.562 2.386 4.562 4.553v10.674h-3.873V22.713c0-.908-.473-1.466-1.613-1.466h-3.207zm26.389-.183c-1.327 0-2.354.678-2.782 1.599-.254.552-.342.976-.371 1.652h5.97c-.077-1.652-.83-3.25-2.818-3.25zm-3.154 5.877c0 1.974 1.234 3.426 3.438 3.426 1.714 0 2.566-.472 3.556-1.452l2.398 2.275c-1.535 1.507-3.146 2.421-5.983 2.421-3.715 0-7.27-2.013-7.27-7.883 0-5.015 3.104-7.854 7.183-7.854 4.134 0 6.523 3.324 6.523 7.678v1.39h-9.844zm-7.137 6.407c-3.161 0-4.503-2.188-4.503-4.35V13.982h3.875v4.151h2.92v3.114h-2.92v7.512c0 .884.42 1.376 1.345 1.376h1.576v3.214h-2.293zM15.838 16.027H11.93v-3.69h3.908v3.69zm.01 17.5c-2.927-.28-3.922-2.044-3.922-4.08l.004-11.315h3.917v15.395zm46.57-.325c-2.92-.28-3.911-2.042-3.911-4.075V11.81h3.91V33.2zm13.67-18.888C72.545-2.866 39.004-3.953 17.385 9.132v1.445C38.982-.458 69.612-.393 72.402 15.43c.934 5.231-2.031 10.686-7.327 13.822v4.102c6.374-2.319 12.912-9.837 11.013-19.04zM36.79 44.37c-14.92 1.371-30.468-.782-32.644-12.374C3.082 26.282 5.7 20.224 9.173 16.462V14.45C2.92 19.9-.473 26.803 1.48 34.958c2.494 10.457 15.838 16.384 36.206 14.416 8.058-.782 18.606-3.359 25.938-7.36v-5.685c-6.653 3.94-17.663 7.197-26.834 8.041z"/><path d="M66.938 12.96c0-.188-.11-.248-.364-.248h-.244v.534l.244.006c.253 0 .364-.084.364-.26v-.031zm.38 1.324h-.289a.069.069 0 01-.06-.038l-.395-.666c-.007-.014-.041-.03-.055-.03h-.177v.66c0 .036-.024.074-.071.074h-.262c-.033 0-.066-.038-.066-.074v-1.67c0-.096.038-.137.12-.15.093-.011.344-.02.48-.02.48 0 .772.141.772.59v.032c0 .278-.14.425-.355.497l.41.688c.002.014.011.033.011.05 0 .027-.016.057-.062.057zm-.687-2.215c-.712 0-1.289.585-1.289 1.29 0 .705.577 1.28 1.29 1.28a1.29 1.29 0 001.29-1.28c0-.705-.582-1.29-1.29-1.29zm0 2.836a1.55 1.55 0 01-1.556-1.547c0-.85.69-1.547 1.556-1.547.857 0 1.56.697 1.56 1.547 0 .852-.703 1.547-1.56 1.547z"/></g><defs><clipPath id="clip0"><path fill="#fff" transform="translate(.676)" d="M0 0h76v50H0z"/></clipPath></defs></svg>