<svg width="139" height="17" fill="none" xmlns="http://www.w3.org/2000/svg"><g clip-path="url(#clip0)" fill="#000"><path d="M116.78 1.108c.001 0 .641 0 .909.2 0 0 .269.2.475.809l4.48 13.303s.063.167.011.305c0 0-.051.136-.28.136h-1.898s-.227 0-.361-.052c0 0-.135-.052-.218-.284l-.908-2.878h-5.245l-.908 2.857s-.062.19-.176.273c0 0-.113.084-.36.084H110.4s-.227 0-.289-.136c0 0-.061-.138 0-.305l4.46-13.303s.104-.315.207-.504c0 0 .104-.19.258-.294 0 0 .155-.106.362-.158 0 0 .205-.053.495-.053h.887zm-.391 2.838h-.103l-.847 2.919-1.074 3.59h3.964l-1.073-3.529-.867-2.98zM74.143 1.148s.29 0 .392.075c0 0 .103.073.103.367v5.45h6.422V1.59s0-.274.115-.358c0 0 .113-.084.36-.084h1.574s.289 0 .382.075c0 0 .093.073.093.367v13.83s0 .294-.093.368c0 0-.093.073-.382.073h-1.573s-.248 0-.361-.084c0 0-.115-.084-.115-.357V9.244h-6.422v6.176s0 .294-.103.368c0 0-.103.073-.392.073h-1.568s-.227 0-.35-.084c0 0-.124-.084-.124-.357V1.59s0-.274.124-.358c0 0 .123-.084.35-.084h1.568zm-6.292 0s.227 0 .3.084c0 0 .072.086.072.317v1.453s0 .21-.072.295c0 0-.073.084-.3.084h-3.922V15.42s0 .294-.093.368c0 0-.093.073-.383.073H61.84s-.248 0-.361-.084c0 0-.114-.084-.114-.357V3.38h-3.84s-.227 0-.29-.083c0 0-.062-.084-.062-.295V1.55s0-.231.063-.317c0 0 .062-.084.289-.084H67.85zM41.697 1.06c4.032 0 7.298 3.325 7.298 7.429 0 4.1-3.266 7.428-7.298 7.428H25.61a1.05 1.05 0 01-1.041-1.06c0-.586.466-1.06 1.041-1.06h3.749a1.05 1.05 0 001.038-1.06 1.05 1.05 0 00-1.038-1.06h-.835a1.05 1.05 0 01-1.04-1.06c0-.586.465-1.06 1.04-1.06h2.5c.58-.002 1.028-.481 1.042-1.06a1.05 1.05 0 00-1.041-1.06h-8.75a1.05 1.05 0 01-1.04-1.06c0-.585.466-1.06 1.04-1.06h6.457c.578-.001 1.027-.481 1.041-1.06a1.05 1.05 0 00-1.041-1.06h-1.456a1.05 1.05 0 01-1.041-1.06c0-.585.466-1.087 1.04-1.087l14.423.01zM40.53 3.537c-2.24 0-4.054 1.848-4.054 4.126v1.65c0 2.282 1.813 4.127 4.054 4.127 2.239 0 4.054-1.845 4.054-4.126V7.662c0-2.278-1.815-4.126-4.054-4.126zm1.385 3.901c.54 0 .979.447.979.996v.128c0 .55-.439.996-.979.996h-3.042a.989.989 0 01-.98-.996v-.128c0-.55.44-.996.98-.996h3.042zm-19.578 6.359c.543 0 .98.444.98.996v.128a.988.988 0 01-.98.996h-3.6a.989.989 0 01-.98-.996v-.128c0-.552.44-.996.98-.996h3.6zM98.181 1.135s.268 0 .34.117c0 0 .072.115.072.367v1.326s0 .274-.071.368c0 0-.073.095-.34.095h-5.493s-.785 0-1.106.357c0 0-.319.357-.319 1.028v2.205H97.5s.269 0 .342.106c0 0 .071.105.071.398v1.154s0 .251-.072.365c0 0-.073.116-.341.116h-6.235v3.071s0 .673.341 1.02c0 0 .34.347 1.084.347h5.615s.29 0 .362.105c0 0 .072.104.072.399v1.3s0 .23-.083.356c0 0-.082.126-.351.126H92.42s-1.095 0-1.797-.315c0 0-.703-.315-1.128-.84 0 0-.424-.525-.589-1.198 0 0-.166-.671-.166-1.407V4.917s0-.736.196-1.418c0 0 .197-.683.642-1.209 0 0 .444-.524 1.147-.84 0 0 .704-.315 1.695-.315h5.761zm7.264.013s.287 0 .392.075c0 0 .102.073.102.367v13.83s0 .294-.102.368c0 0-.105.073-.392.073h-1.568s-.247 0-.361-.084c0 0-.113-.084-.113-.357V1.59s0-.274.113-.358c0 0 .114-.084.361-.084h1.568z"/><path d="M24.006 1.078c.54 0 .976.446.976.996v.13c0 .55-.436.993-.976.993h-4.021a.986.986 0 01-.979-.993v-.13c0-.55.439-.996.979-.996h4.021zm1.249 8.479c.54 0 .978.447.978.996v.128c0 .55-.439.996-.978.996h-2.209a.989.989 0 01-.978-.996v-.128c0-.55.439-.996.978-.996h2.209z"/></g><defs><clipPath id="clip0"><path fill="#fff" transform="translate(17.675 1)" d="M0 0h105v15H0z"/></clipPath></defs></svg>