<svg width="139" height="37" fill="none" xmlns="http://www.w3.org/2000/svg"><g clip-path="url(#clip0)"><path d="M27.141 25.568c.402 1.066.958 1.978 1.668 2.735a7.175 7.175 0 002.524 1.738c.973.401 2.03.602 3.173.602a7.847 7.847 0 003.127-.626 7.692 7.692 0 002.547-1.76 7.987 7.987 0 001.69-2.712c.402-1.05.603-2.225.603-3.523V2h4.864v32.444h-4.818V31.43a11.165 11.165 0 01-3.821 2.642c-1.467.618-3.05.927-4.748.927-1.73 0-3.343-.301-4.84-.904a11.333 11.333 0 01-3.891-2.572c-1.096-1.113-1.96-2.449-2.594-4.01-.633-1.56-.95-3.298-.95-5.213V2h4.864v20.023c0 1.297.2 2.48.602 3.545zM55.72 2v11.819a12.39 12.39 0 013.752-2.573c1.42-.633 2.964-.95 4.632-.95 1.73 0 3.35.325 4.863.974a12.425 12.425 0 013.937 2.642 12.436 12.436 0 012.64 3.94c.65 1.513.973 3.12.973 4.82a11.95 11.95 0 01-.972 4.796 12.503 12.503 0 01-2.64 3.917 12.425 12.425 0 01-3.938 2.642c-1.513.648-3.134.973-4.863.973-1.668 0-3.22-.317-4.655-.95a12.304 12.304 0 01-3.775-2.573v2.967h-4.632V2h4.678zm.533 23.87a8.065 8.065 0 001.737 2.595 8.38 8.38 0 002.593 1.761 7.881 7.881 0 003.197.65 7.767 7.767 0 003.15-.65 8.101 8.101 0 002.57-1.761 8.596 8.596 0 001.737-2.596 7.893 7.893 0 00.648-3.198 8.058 8.058 0 00-.648-3.22 8.518 8.518 0 00-1.737-2.62 7.797 7.797 0 00-2.57-1.737 8.016 8.016 0 00-3.15-.626 8.014 8.014 0 00-3.15.626 8.065 8.065 0 00-2.594 1.737 8.315 8.315 0 00-1.76 2.62 8.058 8.058 0 00-.649 3.22c0 1.144.209 2.21.626 3.198zm22.904-7.973a12.61 12.61 0 012.548-3.916 11.836 11.836 0 013.844-2.665c1.482-.649 3.088-.973 4.817-.973 1.699 0 3.274.309 4.725.927a11.206 11.206 0 013.752 2.572c1.05 1.097 1.868 2.395 2.455 3.893.586 1.499.88 3.129.88 4.89v1.53H82.955a8.034 8.034 0 002.663 4.797 7.938 7.938 0 002.363 1.413c.88.34 1.814.51 2.802.51 2.81 0 5.08-1.159 6.81-3.476l3.381 2.503a12.588 12.588 0 01-4.354 3.708c-1.73.896-3.675 1.344-5.837 1.344-1.76 0-3.404-.31-4.933-.927a12.011 12.011 0 01-3.983-2.596 12.314 12.314 0 01-2.663-3.916c-.649-1.499-.973-3.129-.973-4.89 0-1.668.309-3.244.926-4.727zm6.508-1.83c-1.312 1.097-2.185 2.557-2.617 4.38h14.405c-.401-1.823-1.258-3.283-2.57-4.38-1.313-1.097-2.85-1.646-4.61-1.646-1.76 0-3.296.549-4.608 1.646zm25.267.533c-.988 1.081-1.482 2.549-1.482 4.403v13.44h-4.679V10.807h4.632v2.92a6.587 6.587 0 012.293-2.27c.942-.557 2.061-.835 3.358-.835h1.621v4.356h-1.945c-1.544 0-2.81.541-3.798 1.623z" fill="#010202"/></g><defs><clipPath id="clip0"><path fill="#fff" transform="translate(21.675 2)" d="M0 0h95v33H0z"/></clipPath></defs></svg>