<svg width="139" height="82" fill="none" xmlns="http://www.w3.org/2000/svg"><path d="M85.256 41.696c-.696.605-1.558.918-2.547.918h-7.24c-.988 0-1.831-.313-2.525-.918-.694-.606-1.052-1.398-1.052-2.36v-.583c0-.92.358-1.691 1.094-2.317.737-.647 1.557-.96 2.483-.96h4.61v2.17h-4.61c-.314 0-.589.105-.862.314-.275.229-.4.48-.4.793v.584c0 .73.42 1.086 1.262 1.086h7.24c.862 0 1.283-.355 1.283-1.086v-5.593c0-.294-.126-.544-.399-.772a1.34 1.34 0 00-.884-.336H72.103v-2.171h10.606a3.57 3.57 0 012.483.961c.737.647 1.094 1.42 1.094 2.317v5.594c0 .96-.337 1.753-1.03 2.359zm14.55-2.359c-.568 2.192-1.748 3.277-3.578 3.277h-3.115c-1.83 0-3.008-1.085-3.577-3.277l-2.294-8.872h2.462l2.21 8.455c.254 1.001.78 1.503 1.537 1.503h2.44c.779 0 1.326-.502 1.58-1.503l2.187-8.455h2.462l-2.315 8.872zm16.464-2.692c-.737.647-1.558.959-2.483.959h-4.63v-2.191h4.63c.294 0 .568-.104.841-.313.274-.23.422-.48.422-.772v-.584c0-.731-.422-1.108-1.263-1.108h-7.26c-.844 0-1.264.377-1.264 1.108v5.572c0 .313.128.564.4.773.274.229.548.334.864.334h10.627v2.17h-10.627c-.927 0-1.746-.313-2.484-.939-.735-.647-1.095-1.419-1.095-2.338v-5.572c0-.983.36-1.755 1.054-2.36.694-.604 1.536-.919 2.525-.919h7.26c.989 0 1.83.315 2.525.898.694.605 1.053 1.398 1.053 2.38v.585c0 .897-.359 1.669-1.095 2.317zm-74.023-.122c0 .8-.654 1.448-1.46 1.448a1.455 1.455 0 01-1.46-1.448c0-.8.654-1.449 1.46-1.449.806 0 1.46.65 1.46 1.45zm0-4.623c0 .8-.654 1.448-1.46 1.448a1.455 1.455 0 01-1.46-1.448c0-.8.654-1.448 1.46-1.448.806 0 1.46.647 1.46 1.448zm4.854 9.246c0 .8-.654 1.45-1.461 1.45-.805 0-1.458-.65-1.458-1.45 0-.8.653-1.448 1.458-1.448.807 0 1.461.649 1.461 1.448z" fill="#1D2329"/><path d="M47.101 36.523c0 .8-.654 1.448-1.461 1.448a1.454 1.454 0 01-1.458-1.447c0-.8.653-1.45 1.458-1.45.807 0 1.461.65 1.461 1.45z" fill="#3875E1"/><path d="M59.393 39.316l-.052.21c-.586 2.032-1.74 3.038-3.5 3.038h-1.604c-1.824 0-2.996-1.08-3.563-3.263l-2.285-8.836h2.453l2.2 8.42c.252.999.776 1.497 1.53 1.497h.934c.775 0 1.32-.493 1.572-1.49 0 0 .572-1.75 2.315-1.771 0 0 1.712-.164 2.299 1.7l.024.062" fill="#1D2329"/><path d="M61.716 38.883c.235.966.822 1.5 1.576 1.5h.934c.775 0 1.319-.5 1.572-1.499l2.18-8.418h2.451l-2.306 8.835c-.566 2.183-1.739 3.264-3.562 3.264h-1.604c-1.823 0-3.006-1.089-3.572-3.272l2.331-.41zM34.505 33.74c0-.293-.125-.544-.395-.773-.272-.231-.542-.336-.855-.336h-9.001v7.807h9c.835 0 1.25-.355 1.25-1.089v-5.608zm1.271 7.975c-.688.608-1.543.92-2.521.92H21.983v-12.18h11.272c.917 0 1.728.313 2.458.962.729.65 1.083 1.424 1.083 2.324v5.608c0 .964-.333 1.759-1.02 2.366zm-13.68 4.156h3.573v.544h-1.49v3.699h-.617v-3.698h-1.465v-.545zm4.052 0h.555v1.807c.234-.283.524-.423.87-.423.188 0 .357.045.506.139.149.093.26.222.333.388.073.164.109.409.109.734v1.598h-.556V48.38a.764.764 0 00-.152-.495.494.494 0 00-.402-.187.663.663 0 00-.347.094c-.109.063-.23.167-.36.313v2.01h-.556v-4.243zm3.556 2.556h1.417c-.013-.221-.08-.392-.199-.511a.64.64 0 00-.477-.18.69.69 0 00-.492.18c-.127.12-.21.29-.25.511zm1.966.334h-1.982c.014.269.105.481.272.64a.9.9 0 00.645.239c.367 0 .707-.115 1.017-.342v.54a1.85 1.85 0 01-.509.241 2.164 2.164 0 01-.593.072c-.311 0-.562-.063-.754-.19a1.401 1.401 0 01-.461-.517 1.567 1.567 0 01-.173-.75c0-.426.12-.773.363-1.04.244-.267.559-.4.947-.4.374 0 .671.13.894.39.223.261.334.61.334 1.047v.07zm4.528-2.377c-.48 0-.877.154-1.19.461-.314.308-.47.696-.47 1.164 0 .455.158.834.473 1.138.314.302.71.454 1.187.454.47 0 .865-.155 1.186-.466.322-.309.483-.69.483-1.144 0-.464-.158-.848-.473-1.152-.316-.304-.715-.455-1.196-.455zm2.202 3.992l-.614.599a2.624 2.624 0 01-.6-.102 3.997 3.997 0 01-.636-.239 6.852 6.852 0 01-.859-.52 2.127 2.127 0 01-1.283-.736 2.06 2.06 0 01-.504-1.373c0-.634.216-1.158.65-1.574.433-.414.982-.622 1.646-.622.66 0 1.208.207 1.646.618.437.412.655.93.655 1.553 0 .525-.165.985-.496 1.382-.33.398-.759.648-1.282.751l.162.06c.502.193.865.288 1.087.288.122 0 .265-.026.428-.085zm2.603-.263v-.358a1.31 1.31 0 01-.408.299 1.09 1.09 0 01-.458.105.96.96 0 01-.494-.132.876.876 0 01-.342-.359c-.077-.15-.116-.4-.116-.75v-1.602h.557v1.595c0 .294.043.5.129.615.085.117.235.175.45.175.267 0 .495-.129.682-.387v-1.998h.556v2.797h-.556zm2.603-.558v-.832l-.372.143c-.19.075-.324.15-.403.227a.382.382 0 00-.117.285c0 .116.037.21.111.284.075.073.17.11.29.11.176 0 .34-.073.491-.216zm.55-1.13v1.188c0 .095.031.143.097.143.068 0 .173-.049.317-.148v.34a1.86 1.86 0 01-.304.161.653.653 0 01-.24.044c-.237 0-.377-.093-.42-.275-.237.183-.49.275-.76.275a.672.672 0 01-.689-.68c0-.175.064-.333.191-.473.129-.137.309-.248.545-.33l.713-.243v-.15c0-.34-.17-.51-.508-.51-.303 0-.599.155-.886.465v-.6c.216-.252.527-.378.933-.378.303 0 .547.08.732.237a.76.76 0 01.164.202c.05.084.08.169.093.253.013.084.02.243.02.478h.001zm1.449-1.109v.342c.25-.27.531-.404.848-.404a.931.931 0 01.836.508c.078.156.118.406.118.748v1.603h-.557v-1.6c0-.289-.044-.494-.132-.616-.088-.124-.236-.185-.441-.185-.264 0-.488.13-.672.39v2.011h-.572v-2.797h.572zm2.17.442l1.05-1.024v.583h.891v.497h-.892v1.369c0 .32.133.48.4.48.2 0 .412-.065.634-.195v.513c-.215.12-.448.179-.701.179a.924.924 0 01-.635-.222.679.679 0 01-.133-.15.784.784 0 01-.086-.22c-.024-.09-.036-.261-.036-.514v-1.24h-.493v-.056zm4.297 2.355v-.358a1.31 1.31 0 01-.408.299 1.09 1.09 0 01-.458.105.96.96 0 01-.494-.132.86.86 0 01-.343-.359c-.076-.15-.115-.4-.115-.75v-1.602h.557v1.595c0 .294.042.5.129.615.085.117.234.175.45.175.267 0 .495-.129.682-.387v-1.998h.555v2.797h-.555zm3.632-2.03v2.03h-.564V48.55c0-.312-.042-.529-.126-.652-.083-.123-.23-.185-.437-.185a.63.63 0 00-.32.082 1.449 1.449 0 00-.331.29v2.029h-.556v-2.796h.556v.368c.283-.287.562-.431.834-.431.356 0 .633.172.83.514.297-.342.607-.514.93-.514.273 0 .497.1.674.298.176.199.264.503.264.91v1.65h-.556v-1.662c0-.232-.048-.411-.143-.536a.49.49 0 00-.412-.185c-.23 0-.444.118-.643.354zm8.036 1.043v.668c-.449.244-.967.366-1.556.366-.477 0-.883-.096-1.216-.287a2.112 2.112 0 01-.79-.786 2.136 2.136 0 01-.291-1.086c0-.618.222-1.138.666-1.56.445-.42.992-.633 1.643-.633.45 0 .948.117 1.498.35v.654c-.501-.285-.989-.428-1.468-.428-.489 0-.896.153-1.22.46A1.528 1.528 0 0060.523 48c0 .467.159.851.477 1.151.32.3.726.45 1.222.45.519 0 1.025-.158 1.52-.474zm1.955-1.32a.875.875 0 00-.655.261.906.906 0 00-.256.664c0 .267.088.486.263.654.173.17.399.254.672.254a.913.913 0 00.67-.257.881.881 0 00.26-.657.875.875 0 00-.271-.658.944.944 0 00-.683-.261zm.03-.498c.426 0 .782.137 1.064.412.282.275.423.62.423 1.035 0 .404-.143.738-.43 1.005-.286.267-.647.4-1.083.4-.42 0-.772-.136-1.054-.407a1.338 1.338 0 01-.424-1.012c0-.41.142-.751.428-1.023.285-.273.644-.41 1.075-.41zm4.413.775v2.03h-.563V48.55c0-.312-.043-.529-.126-.652-.084-.123-.23-.185-.438-.185a.63.63 0 00-.319.082 1.449 1.449 0 00-.331.29v2.029h-.556v-2.796h.555v.368c.284-.287.563-.431.835-.431.356 0 .633.172.83.514.296-.342.607-.514.93-.514.273 0 .497.1.674.298.176.199.263.503.263.91v1.65h-.555v-1.662c0-.232-.048-.411-.143-.536a.49.49 0 00-.413-.185c-.229 0-.444.118-.643.354zm3.482-.246h-.394v1.715c.171.089.35.134.537.134.261 0 .473-.09.64-.27.166-.18.248-.413.248-.696a.954.954 0 00-.118-.482.705.705 0 00-.32-.305c-.134-.065-.333-.096-.593-.096zm-.965 3.706v-4.227h.975c.5 0 .889.124 1.167.37.279.248.42.593.42 1.037 0 .42-.132.763-.395 1.033-.26.27-.595.403-1 .403-.18 0-.378-.04-.596-.118v1.502h-.571zm4.959-1.43v-.358a1.31 1.31 0 01-.409.299c-.152.07-.305.105-.457.105a.96.96 0 01-.495-.132.863.863 0 01-.34-.359c-.077-.15-.117-.4-.117-.75v-1.602h.557v1.595c0 .294.042.5.129.615.084.117.234.175.449.175.268 0 .496-.129.683-.387v-1.998h.555v2.797h-.555zm.953-2.355l1.05-1.024v.583h.892v.497h-.892v1.369c0 .32.132.48.4.48.2 0 .411-.065.634-.195v.513a1.41 1.41 0 01-.7.179.926.926 0 01-.636-.222.679.679 0 01-.133-.15.784.784 0 01-.086-.22c-.024-.09-.036-.261-.036-.514v-1.24h-.493v-.056zm2.528-.441h.556v2.797h-.556v-2.797zm.279-1.173c.091 0 .17.03.235.093.066.063.098.14.098.231a.31.31 0 01-.098.23.322.322 0 01-.462-.001.311.311 0 010-.456.31.31 0 01.227-.098zm1.631 1.172v.342c.25-.27.532-.404.849-.404a.931.931 0 01.835.508c.078.156.118.406.118.748v1.603h-.557v-1.6c0-.289-.043-.494-.131-.616-.088-.124-.236-.185-.442-.185-.263 0-.487.13-.672.39v2.011h-.571v-2.797h.571zm3.449.482a.545.545 0 00-.387.152.488.488 0 00-.16.366.46.46 0 00.157.358.568.568 0 00.396.142.565.565 0 00.394-.145.473.473 0 00.158-.361.476.476 0 00-.16-.366.57.57 0 00-.398-.146zm-.134 2.45c-.188 0-.34.04-.46.118-.12.079-.18.18-.18.304 0 .286.262.43.783.43.247 0 .438-.038.573-.108.135-.072.203-.174.203-.305 0-.13-.085-.234-.256-.317-.171-.082-.393-.123-.663-.123zm-.914-1.964c0-.298.11-.534.33-.707.22-.174.519-.261.898-.261h1.161v.435h-.568c.11.11.187.212.23.304.043.09.064.196.064.313 0 .146-.042.29-.126.43a.875.875 0 01-.323.324c-.132.075-.348.135-.649.18-.213.03-.32.102-.32.216 0 .064.04.118.119.159a1.8 1.8 0 00.427.129c.344.076.567.134.666.177.1.042.189.103.27.182a.682.682 0 01.203.505c0 .266-.12.477-.357.635-.237.158-.555.237-.953.237-.402 0-.723-.08-.963-.238-.239-.16-.36-.372-.36-.64 0-.38.236-.623.705-.733-.187-.12-.281-.239-.281-.355 0-.09.04-.171.122-.244a.752.752 0 01.326-.161c-.414-.183-.62-.478-.62-.887zm8.33.842v.668c-.45.244-.969.366-1.557.366-.477 0-.883-.096-1.216-.287a2.11 2.11 0 01-.79-.786 2.12 2.12 0 01-.29-1.086c0-.618.22-1.138.665-1.56.444-.42.992-.633 1.643-.633.45 0 .948.117 1.496.35v.654c-.5-.285-.987-.428-1.466-.428-.49 0-.896.153-1.22.46A1.528 1.528 0 0090.516 48c0 .467.16.851.477 1.151.32.3.727.45 1.223.45.518 0 1.025-.158 1.52-.474zm1.954-1.32a.875.875 0 00-.655.261.906.906 0 00-.256.664c0 .267.087.486.262.654.174.17.4.254.673.254a.913.913 0 00.67-.257.881.881 0 00.259-.657.875.875 0 00-.27-.658.944.944 0 00-.684-.261zm.03-.498c.426 0 .782.137 1.064.412.282.275.423.62.423 1.035 0 .404-.143.738-.43 1.005-.286.267-.647.4-1.083.4-.42 0-.771-.136-1.054-.407a1.338 1.338 0 01-.424-1.012c0-.41.142-.751.428-1.023.285-.273.645-.41 1.075-.41zm4.413.775v2.03h-.563V48.55c0-.312-.043-.529-.126-.652-.084-.123-.23-.185-.438-.185a.63.63 0 00-.32.082 1.447 1.447 0 00-.33.29v2.029h-.557v-2.796h.556v.368c.284-.287.562-.431.834-.431.357 0 .634.172.83.514.297-.342.607-.514.932-.514.272 0 .496.1.672.298.177.199.264.503.264.91v1.65h-.555v-1.662c0-.232-.048-.411-.143-.536a.492.492 0 00-.413-.185c-.229 0-.444.118-.643.354zm3.482-.246h-.394v1.715c.171.089.35.134.537.134.261 0 .473-.09.64-.27.166-.18.248-.413.248-.696a.95.95 0 00-.118-.482.704.704 0 00-.319-.305c-.136-.065-.334-.096-.594-.096zm-.965 3.706v-4.227h.975c.5 0 .889.124 1.168.37.277.248.417.593.417 1.037 0 .42-.13.763-.393 1.033-.261.27-.595.403-1.001.403a1.78 1.78 0 01-.595-.118v1.502h-.571zm4.422-1.988v-.832l-.373.143c-.191.075-.325.15-.403.227a.384.384 0 00-.118.285.381.381 0 00.402.394.705.705 0 00.492-.216zm.547-1.13v1.188c0 .095.034.143.1.143.068 0 .172-.049.317-.148v.34a1.946 1.946 0 01-.304.161.652.652 0 01-.24.044c-.237 0-.378-.093-.42-.275a1.23 1.23 0 01-.76.275.671.671 0 01-.69-.68c0-.175.064-.333.191-.473.129-.137.309-.248.545-.33l.714-.243v-.15c0-.34-.17-.51-.508-.51-.304 0-.6.155-.887.465v-.6c.216-.252.527-.378.933-.378.304 0 .548.08.732.237a.758.758 0 01.164.202c.049.084.08.169.093.253.015.084.019.243.019.478h.001zm1.451-1.109v.342c.249-.27.532-.404.848-.404a.938.938 0 01.836.508c.078.156.118.406.118.748v1.603h-.557v-1.6c0-.289-.044-.494-.131-.616-.088-.124-.236-.185-.442-.185-.264 0-.488.13-.672.39v2.011h-.571v-2.797h.571zm4.18 0h.622l-1.986 4.227h-.622l.949-2.02-1.083-2.207h.635l.753 1.574.732-1.574zm2.794 1.663h-.242v-1.585h.391l.403 1.266.39-1.266h.383v1.585h-.244v-1.33l-.409 1.33h-.239l-.432-1.352-.001 1.352zm-.946 0h-.267v-1.36h-.518v-.225h1.309v.225h-.524v1.36z" fill="#1D2329"/></svg>