<svg width="29" height="28" fill="none" xmlns="http://www.w3.org/2000/svg"><g clip-path="url(#clip0)"><path d="M1.433.292h-.01a.792.792 0 00-.364.09.892.892 0 00-.296.254 1.026 1.026 0 00-.176.37 1.1 1.1 0 00-.022.418L4.25 26.6c.095.633.584 1.102 1.156 1.108H23.09a.813.813 0 00.57-.23c.158-.15.264-.36.298-.59l3.686-25.459c.02-.14.012-.282-.022-.418a1.027 1.027 0 00-.175-.37.891.891 0 00-.296-.253.792.792 0 00-.364-.092h-.011L1.433.292zm15.522 18.194h-5.644L9.782 9.504h8.541l-1.369 8.983.001-.001z" fill="#fff"/></g><defs><clipPath id="clip0"><path fill="#fff" transform="translate(.553)" d="M0 0h28v28H0z"/></clipPath></defs></svg>