<svg width="25" height="24" fill="none" xmlns="http://www.w3.org/2000/svg"><path d="M3.025 1v13.5h4.924l4.33-7.5h11V1H3.025z" fill="#DB4437"/><path d="M3.025 1v13.5h4.924l4.33-7.5h11V1H3.025z" fill="url(#paint0_linear)"/><path d="M8.067 14.456L3.09 5.917l-.073.125 4.943 8.476.108-.062z" fill="#3E2723" fill-opacity=".15"/><path d="M1.279 23h10.47l4.86-4.86V14.5H7.95L1.279 3.06V23z" fill="#0F9D58"/><path d="M1.279 23h10.47l4.86-4.86V14.5H7.95L1.279 3.06V23z" fill="url(#paint1_linear)"/><path d="M16.509 14.666l-.104-.06L11.606 23h.144l4.762-8.33-.003-.004z" fill="#263238" fill-opacity=".15"/><path d="M12.279 7l4.33 7.5-4.86 8.5h11.53V7h-11z" fill="#FFCD40"/><path d="M12.279 7l4.33 7.5-4.86 8.5h11.53V7h-11z" fill="url(#paint2_linear)"/><path d="M12.279 7l4.33 7.5-4.86 8.5h11.53V7h-11z" fill="#FFCD40"/><path d="M12.279 7l4.33 7.5-4.86 8.5h11.53V7h-11z" fill="url(#paint3_linear)"/><path d="M3.025 1v13.5h4.924l4.33-7.5h11V1H3.025z" fill="#DB4437"/><path d="M3.025 1v13.5h4.924l4.33-7.5h11V1H3.025z" fill="url(#paint4_linear)"/><path d="M12.279 7v2.619L22.079 7h-9.8z" fill="url(#paint5_radial)"/><path d="M1.279 23h10.47l4.86-4.86V14.5H7.95L1.279 3.06V23z" fill="#0F9D58"/><path d="M1.279 23h10.47l4.86-4.86V14.5H7.95L1.279 3.06V23z" fill="url(#paint6_linear)"/><path d="M3.025 6.056l7.156 7.155L7.95 14.5 3.025 6.056z" fill="url(#paint7_radial)"/><path d="M11.757 22.986l2.62-9.775L16.61 14.5l-4.853 8.486z" fill="url(#paint8_radial)"/><path d="M12.279 17a5 5 0 100-10 5 5 0 000 10z" fill="#F1F1F1"/><path d="M12.279 16a4 4 0 100-8 4 4 0 000 8z" fill="#4285F4"/><path d="M12.279 6.875a5 5 0 00-5 5V12a5 5 0 015-5h11v-.125h-11z" fill="#3E2723" fill-opacity=".2"/><path d="M16.604 14.5a4.995 4.995 0 01-4.325 2.5 4.996 4.996 0 01-4.327-2.5h-.005L1.28 3.06v.125l6.67 11.44h.005a4.993 4.993 0 008.651 0h.006V14.5h-.007z" fill="#fff" fill-opacity=".1"/><path opacity=".1" d="M12.404 7c-.022 0-.042.003-.063.004a4.998 4.998 0 010 9.992c.021 0 .041.004.063.004a5 5 0 000-10z" fill="#3E2723"/><path d="M16.654 14.666a4.965 4.965 0 00.437-4.006c.119.428.188.876.188 1.341 0 .91-.247 1.76-.672 2.495l.003.005-4.86 8.5h.145l4.761-8.33-.002-.005z" fill="#fff" fill-opacity=".2"/><path d="M12.279 1.125c6.053 0 10.965 4.891 10.998 10.938L23.28 12c0-6.075-4.925-11-11-11s-11 4.925-11 11v.063c.035-6.047 4.946-10.938 11-10.938z" fill="#fff" fill-opacity=".2"/><path d="M12.279 22.875c6.053 0 10.965-4.891 10.998-10.938l.002.063c0 6.075-4.925 11-11 11s-11-4.925-11-11v-.063c.035 6.047 4.946 10.938 11 10.938z" fill="#3E2723" fill-opacity=".15"/><path d="M12.279 23c6.075 0 11-4.925 11-11s-4.925-11-11-11c-6.076 0-11 4.925-11 11s4.924 11 11 11z" fill="url(#paint9_radial)"/><defs><linearGradient id="paint0_linear" x1="3.946" y1="9.378" x2="10.508" y2="5.544" gradientUnits="userSpaceOnUse"><stop stop-color="#A52714" stop-opacity=".6"/><stop offset=".66" stop-color="#A52714" stop-opacity="0"/></linearGradient><linearGradient id="paint1_linear" x1="14.138" y1="20.562" x2="6.846" y2="16.291" gradientUnits="userSpaceOnUse"><stop stop-color="#055524" stop-opacity=".4"/><stop offset=".33" stop-color="#055524" stop-opacity="0"/></linearGradient><linearGradient id="paint2_linear" x1="15.511" y1="6.226" x2="17.347" y2="14.266" gradientUnits="userSpaceOnUse"><stop stop-color="#EA6100" stop-opacity=".3"/><stop offset=".66" stop-color="#EA6100" stop-opacity="0"/></linearGradient><linearGradient id="paint3_linear" x1="15.511" y1="6.226" x2="17.347" y2="14.266" gradientUnits="userSpaceOnUse"><stop stop-color="#EA6100" stop-opacity=".3"/><stop offset=".66" stop-color="#EA6100" stop-opacity="0"/></linearGradient><linearGradient id="paint4_linear" x1="3.946" y1="9.378" x2="10.508" y2="5.544" gradientUnits="userSpaceOnUse"><stop stop-color="#A52714" stop-opacity=".6"/><stop offset=".66" stop-color="#A52714" stop-opacity="0"/></linearGradient><linearGradient id="paint6_linear" x1="14.138" y1="20.562" x2="6.846" y2="16.291" gradientUnits="userSpaceOnUse"><stop stop-color="#055524" stop-opacity=".4"/><stop offset=".33" stop-color="#055524" stop-opacity="0"/></linearGradient><radialGradient id="paint5_radial" cx="0" cy="0" r="1" gradientUnits="userSpaceOnUse" gradientTransform="translate(11.8 6.994) scale(10.5097)"><stop stop-color="#3E2723" stop-opacity=".2"/><stop offset="1" stop-color="#3E2723" stop-opacity="0"/></radialGradient><radialGradient id="paint7_radial" cx="0" cy="0" r="1" gradientUnits="userSpaceOnUse" gradientTransform="translate(3.013 6.065) scale(9.7555)"><stop stop-color="#3E2723" stop-opacity=".2"/><stop offset="1" stop-color="#3E2723" stop-opacity="0"/></radialGradient><radialGradient id="paint8_radial" cx="0" cy="0" r="1" gradientUnits="userSpaceOnUse" gradientTransform="translate(12.26 12.017) scale(10.9837)"><stop stop-color="#263238" stop-opacity=".2"/><stop offset="1" stop-color="#263238" stop-opacity="0"/></radialGradient><radialGradient id="paint9_radial" cx="0" cy="0" r="1" gradientUnits="userSpaceOnUse" gradientTransform="translate(4.564 4.002) scale(22.0932)"><stop stop-color="#fff" stop-opacity=".1"/><stop offset="1" stop-color="#fff" stop-opacity="0"/></radialGradient></defs></svg>