<svg width="25" height="24" fill="none" xmlns="http://www.w3.org/2000/svg"><path d="M22.718 7.8c-.49-1.179-1.481-2.45-2.26-2.852.634 1.242 1 2.489 1.14 3.419l.003.018c-1.273-3.175-3.433-4.455-5.197-7.243a12.03 12.03 0 01-.266-.432 3.274 3.274 0 01-.124-.234 2.05 2.05 0 01-.175-.464.03.03 0 00-.019-.01.04.04 0 00-.02 0 .022.022 0 00-.006.003c-.003 0-.005.003-.008.004l.005-.006C12.96 1.66 12 4.726 11.912 6.26A5.638 5.638 0 008.81 7.455a3.334 3.334 0 00-.292-.22 5.221 5.221 0 01-.031-2.753c-1.157.527-2.057 1.36-2.712 2.095H5.77c-.447-.565-.415-2.431-.39-2.82-.005-.025-.333.17-.375.199a8.19 8.19 0 00-1.101.943c-.385.39-.737.812-1.052 1.261A9.51 9.51 0 001.34 9.574l-.015.074c-.02.1-.097.596-.11.703v.025c-.1.513-.162 1.033-.186 1.555v.057c0 6.221 5.043 11.265 11.265 11.265 5.572 0 10.198-4.045 11.104-9.359.019-.144.034-.289.05-.434.225-1.933-.024-3.963-.73-5.66zM9.734 16.616c.052.025.102.053.156.077l.007.005a7.899 7.899 0 01-.163-.082zM21.602 8.39v-.01.012-.001z" fill="url(#paint0_linear)"/><path d="M22.718 7.8c-.49-1.179-1.481-2.45-2.26-2.852.634 1.242 1 2.489 1.14 3.419v.023c1.064 2.882.485 5.812-.35 7.603-1.29 2.77-4.416 5.61-9.308 5.472-5.282-.15-9.938-4.074-10.807-9.21-.159-.81 0-1.221.08-1.879-.098.507-.135.654-.183 1.555v.057c0 6.222 5.044 11.265 11.265 11.265 5.572 0 10.198-4.045 11.104-9.359.019-.144.034-.289.051-.434.223-1.932-.026-3.963-.732-5.66z" fill="url(#paint1_radial)"/><path d="M22.718 7.8c-.49-1.179-1.481-2.45-2.26-2.852.634 1.242 1 2.489 1.14 3.419v.023c1.064 2.882.485 5.812-.35 7.603-1.29 2.77-4.416 5.61-9.308 5.472-5.282-.15-9.938-4.074-10.807-9.21-.159-.81 0-1.221.08-1.879-.098.507-.135.654-.183 1.555v.057c0 6.222 5.044 11.265 11.265 11.265 5.572 0 10.198-4.045 11.104-9.359.019-.144.034-.289.051-.434.223-1.932-.026-3.963-.732-5.66z" fill="url(#paint2_radial)"/><path d="M17.244 9.123l.07.052a6.116 6.116 0 00-1.046-1.365C12.766 4.308 15.35.217 15.785.009l.005-.006C12.96 1.66 12 4.727 11.912 6.26c.131-.01.262-.02.396-.02 2.111 0 3.95 1.161 4.936 2.882z" fill="url(#paint3_radial)"/><path d="M12.315 9.822c-.019.281-1.009 1.247-1.355 1.247-3.203 0-3.723 1.938-3.723 1.938.14 1.632 1.278 2.976 2.653 3.687.063.032.126.061.188.09.11.047.22.094.33.136.473.166.967.261 1.467.281 5.614.264 6.703-6.713 2.65-8.74 1.038-.18 2.115.238 2.716.66-.984-1.72-2.824-2.882-4.936-2.882-.133 0-.264.011-.395.02a5.638 5.638 0 00-3.1 1.196c.172.146.366.34.774.742.766.756 2.726 1.534 2.73 1.625z" fill="url(#paint4_radial)"/><path d="M12.315 9.822c-.019.281-1.009 1.247-1.355 1.247-3.203 0-3.723 1.938-3.723 1.938.14 1.632 1.278 2.976 2.653 3.687.063.032.126.061.188.09.11.047.22.094.33.136.473.166.967.261 1.467.281 5.614.264 6.703-6.713 2.65-8.74 1.038-.18 2.115.238 2.716.66-.984-1.72-2.824-2.882-4.936-2.882-.133 0-.264.011-.395.02a5.638 5.638 0 00-3.1 1.196c.172.146.366.34.774.742.766.756 2.726 1.534 2.73 1.625z" fill="url(#paint5_radial)"/><path d="M8.286 7.08l.235.155a5.221 5.221 0 01-.032-2.753c-1.157.527-2.057 1.36-2.711 2.095.053 0 1.687-.03 2.508.504z" fill="url(#paint6_radial)"/><path d="M1.133 12.255c.87 5.136 5.525 9.06 10.81 9.21 4.893.138 8.016-2.702 9.309-5.472.834-1.791 1.414-4.721.35-7.603v-.022c0 .003 0 .007.003.019.4 2.61-.928 5.137-3.003 6.847a.374.374 0 00-.006.014c-4.043 3.293-7.911 1.987-8.694 1.454a6.552 6.552 0 01-.164-.082c-2.357-1.125-3.331-3.274-3.122-5.116-1.99 0-2.669-1.679-2.669-1.679s1.787-1.274 4.142-.166c2.181 1.027 4.23.167 4.23.166-.005-.091-1.965-.871-2.73-1.625-.408-.402-.602-.596-.774-.742a3.333 3.333 0 00-.292-.22 6.525 6.525 0 00-.234-.154c-.822-.535-2.456-.505-2.51-.504h-.005c-.446-.565-.415-2.432-.39-2.821-.005-.024-.333.17-.375.2a8.19 8.19 0 00-1.1.943c-.386.39-.738.812-1.053 1.261a9.51 9.51 0 00-1.511 3.414c-.01.021-.41 1.771-.212 2.678z" fill="url(#paint7_radial)"/><path d="M16.268 7.81c.411.403.763.863 1.046 1.365.058.044.115.09.169.14 2.553 2.352 1.218 5.68 1.116 5.92 2.074-1.71 3.401-4.238 3.002-6.848-1.273-3.177-3.433-4.457-5.197-7.245a12.03 12.03 0 01-.266-.432 3.275 3.275 0 01-.124-.234 2.05 2.05 0 01-.175-.464.03.03 0 00-.019-.01.04.04 0 00-.02 0 .022.022 0 00-.006.003c-.003 0-.005.003-.008.004-.436.208-3.02 4.3.482 7.8z" fill="url(#paint8_radial)"/><path d="M17.482 9.313a2.161 2.161 0 00-.169-.14l-.07-.053c-.602-.421-1.679-.84-2.716-.66 4.052 2.027 2.964 9.004-2.651 8.74-.5-.02-.994-.115-1.466-.281a6.227 6.227 0 01-.33-.136 3.302 3.302 0 01-.188-.09l.007.005c.784.534 4.652 1.84 8.695-1.453l.006-.015c.1-.235 1.436-3.563-1.118-5.917z" fill="url(#paint9_radial)"/><path d="M7.237 13.007s.52-1.938 3.723-1.938c.346 0 1.336-.967 1.355-1.247.018-.28-2.049.86-4.23-.166-2.355-1.108-4.142.166-4.142.166s.679 1.68 2.669 1.68c-.209 1.841.765 3.988 3.122 5.115.053.025.102.053.156.077-1.375-.71-2.511-2.055-2.653-3.687z" fill="url(#paint10_radial)"/><path d="M22.718 7.8c-.49-1.179-1.481-2.45-2.26-2.852.634 1.242 1 2.489 1.14 3.419l.003.018c-1.273-3.175-3.433-4.455-5.197-7.243a12.03 12.03 0 01-.266-.432 3.274 3.274 0 01-.124-.234 2.05 2.05 0 01-.175-.464.03.03 0 00-.019-.01.04.04 0 00-.02 0 .022.022 0 00-.006.003c-.003 0-.005.003-.008.004l.005-.006C12.96 1.66 12 4.726 11.912 6.26c.132-.01.263-.02.396-.02 2.112 0 3.951 1.161 4.936 2.882-.601-.422-1.678-.84-2.716-.66 4.052 2.026 2.964 9.003-2.65 8.74-.5-.02-.995-.115-1.466-.282a6.028 6.028 0 01-.331-.135 3.267 3.267 0 01-.188-.09l.008.004a6.917 6.917 0 01-.164-.081c.053.024.102.052.156.076-1.378-.71-2.514-2.056-2.656-3.688 0 0 .52-1.938 3.723-1.938.346 0 1.336-.967 1.355-1.247-.005-.091-1.965-.871-2.73-1.624-.408-.403-.602-.597-.774-.743a3.333 3.333 0 00-.291-.22 5.221 5.221 0 01-.032-2.753c-1.157.527-2.057 1.36-2.711 2.095H5.77c-.446-.565-.415-2.431-.39-2.82-.005-.025-.332.17-.375.199a8.19 8.19 0 00-1.1.943c-.386.39-.738.812-1.053 1.261a9.51 9.51 0 00-1.511 3.414l-.015.074c-.021.1-.117.603-.13.71 0-.008 0 .009 0 0-.088.52-.144 1.046-.168 1.573v.057c0 6.221 5.043 11.265 11.265 11.265 5.572 0 10.198-4.045 11.104-9.359.019-.144.034-.289.05-.434.225-1.933-.024-3.963-.73-5.66z" fill="url(#paint11_linear)"/><defs><radialGradient id="paint1_radial" cx="0" cy="0" r="1" gradientUnits="userSpaceOnUse" gradientTransform="translate(20.363 2.581) scale(23.4848)"><stop offset=".13" stop-color="#FFBD4F"/><stop offset=".19" stop-color="#FFAC31"/><stop offset=".25" stop-color="#FF9D17"/><stop offset=".28" stop-color="#FF980E"/><stop offset=".4" stop-color="#FF563B"/><stop offset=".47" stop-color="#FF3750"/><stop offset=".71" stop-color="#F5156C"/><stop offset=".78" stop-color="#EB0878"/><stop offset=".86" stop-color="#E50080"/></radialGradient><radialGradient id="paint2_radial" cx="0" cy="0" r="1" gradientUnits="userSpaceOnUse" gradientTransform="translate(11.781 12.182) scale(23.4848)"><stop offset=".3" stop-color="#960E18"/><stop offset=".35" stop-color="#B11927" stop-opacity=".74"/><stop offset=".43" stop-color="#DB293D" stop-opacity=".34"/><stop offset=".5" stop-color="#F5334B" stop-opacity=".09"/><stop offset=".53" stop-color="#FF3750" stop-opacity="0"/></radialGradient><radialGradient id="paint3_radial" cx="0" cy="0" r="1" gradientUnits="userSpaceOnUse" gradientTransform="translate(14.613 -2.749) scale(17.0138)"><stop offset=".13" stop-color="#FFF44F"/><stop offset=".25" stop-color="#FFDC3E"/><stop offset=".51" stop-color="#FF9D12"/><stop offset=".53" stop-color="#FF980E"/></radialGradient><radialGradient id="paint4_radial" cx="0" cy="0" r="1" gradientUnits="userSpaceOnUse" gradientTransform="translate(9.184 18.316) scale(11.182)"><stop offset=".35" stop-color="#3A8EE6"/><stop offset=".47" stop-color="#5C79F0"/><stop offset=".67" stop-color="#9059FF"/><stop offset="1" stop-color="#C139E6"/></radialGradient><radialGradient id="paint5_radial" cx="0" cy="0" r="1" gradientUnits="userSpaceOnUse" gradientTransform="matrix(5.75089 -1.4229 1.67157 6.75592 12.119 9.39)"><stop offset=".21" stop-color="#9059FF" stop-opacity="0"/><stop offset=".28" stop-color="#8C4FF3" stop-opacity=".06"/><stop offset=".75" stop-color="#7716A8" stop-opacity=".45"/><stop offset=".97" stop-color="#6E008B" stop-opacity=".6"/></radialGradient><radialGradient id="paint6_radial" cx="0" cy="0" r="1" gradientUnits="userSpaceOnUse" gradientTransform="translate(11.485 1.62) scale(8.04469)"><stop stop-color="#FFE226"/><stop offset=".12" stop-color="#FFDB27"/><stop offset=".3" stop-color="#FFC82A"/><stop offset=".5" stop-color="#FFA930"/><stop offset=".73" stop-color="#FF7E37"/><stop offset=".79" stop-color="#FF7139"/></radialGradient><radialGradient id="paint7_radial" cx="0" cy="0" r="1" gradientUnits="userSpaceOnUse" gradientTransform="translate(17.808 -3.482) scale(34.3223)"><stop offset=".11" stop-color="#FFF44F"/><stop offset=".46" stop-color="#FF980E"/><stop offset=".62" stop-color="#FF5634"/><stop offset=".72" stop-color="#FF3647"/><stop offset=".9" stop-color="#E31587"/></radialGradient><radialGradient id="paint8_radial" cx="0" cy="0" r="1" gradientUnits="userSpaceOnUse" gradientTransform="matrix(2.51424 24.89094 -16.35348 1.65187 14.49 .268)"><stop stop-color="#FFF44F"/><stop offset=".06" stop-color="#FFE847"/><stop offset=".17" stop-color="#FFC830"/><stop offset=".3" stop-color="#FF980E"/><stop offset=".36" stop-color="#FF8B16"/><stop offset=".45" stop-color="#FF672A"/><stop offset=".57" stop-color="#FF3647"/><stop offset=".74" stop-color="#E31587"/></radialGradient><radialGradient id="paint9_radial" cx="0" cy="0" r="1" gradientUnits="userSpaceOnUse" gradientTransform="translate(11.295 4.6) scale(21.4275)"><stop offset=".14" stop-color="#FFF44F"/><stop offset=".48" stop-color="#FF980E"/><stop offset=".59" stop-color="#FF5634"/><stop offset=".66" stop-color="#FF3647"/><stop offset=".9" stop-color="#E31587"/></radialGradient><radialGradient id="paint10_radial" cx="0" cy="0" r="1" gradientUnits="userSpaceOnUse" gradientTransform="translate(16.952 5.854) scale(23.4525)"><stop offset=".09" stop-color="#FFF44F"/><stop offset=".23" stop-color="#FFE141"/><stop offset=".51" stop-color="#FFAF1E"/><stop offset=".63" stop-color="#FF980E"/></radialGradient><linearGradient id="paint0_linear" x1="21.227" y1="3.602" x2="2.526" y2="21.645" gradientUnits="userSpaceOnUse"><stop offset=".05" stop-color="#FFF44F"/><stop offset=".11" stop-color="#FFE847"/><stop offset=".22" stop-color="#FFC830"/><stop offset=".37" stop-color="#FF980E"/><stop offset=".4" stop-color="#FF8B16"/><stop offset=".46" stop-color="#FF672A"/><stop offset=".53" stop-color="#FF3647"/><stop offset=".7" stop-color="#E31587"/></linearGradient><linearGradient id="paint11_linear" x1="21.002" y1="3.506" x2="5.09" y2="19.418" gradientUnits="userSpaceOnUse"><stop offset=".17" stop-color="#FFF44F" stop-opacity=".8"/><stop offset=".27" stop-color="#FFF44F" stop-opacity=".63"/><stop offset=".49" stop-color="#FFF44F" stop-opacity=".22"/><stop offset=".6" stop-color="#FFF44F" stop-opacity="0"/></linearGradient></defs></svg>