<svg width="30" height="29" fill="none" xmlns="http://www.w3.org/2000/svg"><path fill-rule="evenodd" clip-rule="evenodd" d="M29.807 16.582l-1.617-5.421L24.985.416a.653.653 0 00-.208-.301.508.508 0 00-.316-.113.508.508 0 00-.316.113.653.653 0 00-.208.3l-3.205 10.746H10.095L6.89.416a.653.653 0 00-.208-.301.508.508 0 00-.316-.113.508.508 0 00-.316.113.653.653 0 00-.208.3L2.637 11.162l-1.613 5.421c-.071.244-.07.509.002.752.073.243.213.451.398.59l13.99 11.077 13.99-11.077c.185-.139.325-.347.398-.59.072-.243.073-.508.002-.752" fill="#FC6D26"/><path fill-rule="evenodd" clip-rule="evenodd" d="M15.415 29l5.318-17.844H10.095l5.32 17.84V29z" fill="#E24329"/><path fill-rule="evenodd" clip-rule="evenodd" d="M15.415 29.001l-5.32-17.841H2.64L15.414 29z" fill="#FC6D26"/><path fill-rule="evenodd" clip-rule="evenodd" d="M2.64 11.16l-1.617 5.42c-.07.244-.07.509.003.752.073.243.212.451.397.59L15.413 29 2.64 11.16z" fill="#FCA326"/><path fill-rule="evenodd" clip-rule="evenodd" d="M2.64 11.16h7.456L6.89.415a.653.653 0 00-.208-.301A.508.508 0 006.367 0a.508.508 0 00-.316.114.653.653 0 00-.208.3L2.64 11.16z" fill="#E24329"/><path fill-rule="evenodd" clip-rule="evenodd" d="M15.415 29l5.32-17.84h7.455L15.414 29z" fill="#FC6D26"/><path fill-rule="evenodd" clip-rule="evenodd" d="M28.189 11.16l1.617 5.421c.07.244.07.509-.003.752a1.142 1.142 0 01-.397.59L15.415 29l12.774-17.84z" fill="#FCA326"/><path fill-rule="evenodd" clip-rule="evenodd" d="M28.189 11.16h-7.456L23.94.415a.654.654 0 01.207-.301.508.508 0 01.316-.114c.113 0 .223.04.316.114a.653.653 0 01.208.3l3.205 10.746h-.002z" fill="#E24329"/></svg>