<svg width="29" height="28" fill="none" xmlns="http://www.w3.org/2000/svg"><g clip-path="url(#clip0)" fill="#fff"><path d="M14.164 27.214L9.15 10.954h10.023l-5.008 16.26z"/><path d="M26.198 10.954l1.528 4.94c.138.45-.012.944-.377 1.223L14.165 27.214l12.033-16.26z" fill-opacity=".65"/><path d="M26.198 10.954h-7.026l3.024-9.793c.154-.5.83-.5.99 0l3.012 9.793z"/><path d="M2.126 10.954l-1.521 4.94c-.138.45.011.944.376 1.223l13.185 10.097-12.04-16.26z" fill-opacity=".65"/><path d="M2.126 10.954H9.15L6.133 1.161a.514.514 0 00-.99 0l-3.017 9.793z"/><path d="M14.166 27.214l-5.015-16.26H2.126l12.04 16.26z" fill-opacity=".85"/><path d="M14.165 27.214l12.033-16.26h-7.026l-5.007 16.26z" fill-opacity=".85"/></g><defs><clipPath id="clip0"><path fill="#fff" transform="translate(.553)" d="M0 0h28v28H0z"/></clipPath></defs></svg>