<svg width="29" height="28" fill="none" xmlns="http://www.w3.org/2000/svg"><g clip-path="url(#clip0)"><path fill-rule="evenodd" clip-rule="evenodd" d="M14.621.467c-3.352 0-6.59 1.174-9.116 3.304C2.949 5.926 1.26 8.88.735 12.12a13.73 13.73 0 001.852 9.411c1.71 2.805 4.403 4.926 7.59 5.98.708.127.959-.308.959-.674v-2.36c-3.925.843-4.754-1.865-4.754-1.865a3.718 3.718 0 00-1.561-2.036c-1.269-.852.103-.852.103-.852.444.063.87.224 1.241.471.373.248.683.576.908.96a2.998 2.998 0 002.379 1.524 3.025 3.025 0 001.709-.365c.055-.7.36-1.36.863-1.857-3.123-.35-6.402-1.542-6.402-6.813A5.328 5.328 0 017.064 9.92a5 5 0 01.138-3.67s1.182-.376 3.864 1.422a13.458 13.458 0 017.04 0c2.683-1.798 3.856-1.422 3.856-1.422.517 1.15.58 2.452.173 3.645a5.328 5.328 0 011.44 3.722c0 5.333-3.286 6.5-6.418 6.814a3.264 3.264 0 01.958 2.556v3.807c0 .452.25.801.965.665 3.151-1.08 5.803-3.207 7.485-6.002a13.729 13.729 0 001.805-9.35c-.525-3.215-2.195-6.15-4.721-8.3C21.15 1.685 17.947.5 14.62.467z" fill="#F9F9F9"/></g><defs><clipPath id="clip0"><path fill="#fff" transform="translate(.553)" d="M0 0h28v28H0z"/></clipPath></defs></svg>