<svg width="28" height="27" fill="none" xmlns="http://www.w3.org/2000/svg"><path d="M4.977 12.132c-.042 0-.052-.024-.031-.06l.222-.324c.02-.036.074-.06.116-.06h3.773c.042 0 .053.036.032.072l-.18.312c-.021.036-.074.072-.106.072l-3.826-.012zm-1.595 1.104c-.043 0-.053-.024-.032-.06l.222-.324c.021-.036.074-.06.116-.06h4.82c.042 0 .063.036.052.072l-.084.288c-.01.048-.053.072-.095.072l-5 .012zM5.94 14.34c-.043 0-.054-.036-.032-.072l.147-.3c.022-.036.064-.072.106-.072h2.114c.042 0 .063.036.063.084l-.02.288c0 .048-.043.084-.075.084L5.94 14.34zm10.97-2.424c-.666.192-1.12.336-1.776.528-.159.048-.17.06-.307-.12-.158-.204-.274-.336-.496-.456-.666-.372-1.31-.264-1.913.18-.719.528-1.089 1.308-1.078 2.28.01.96.592 1.752 1.427 1.884.718.108 1.32-.18 1.796-.792.095-.132.18-.276.285-.444h-2.04c-.221 0-.274-.156-.2-.36.137-.372.391-.996.539-1.308.032-.072.106-.192.264-.192h3.847c-.021.324-.021.648-.063.972a5.507 5.507 0 01-.867 2.352c-.76 1.14-1.754 1.848-3.012 2.04-1.036.156-1.997-.072-2.843-.792-.782-.672-1.226-1.56-1.342-2.664-.137-1.308.2-2.484.898-3.516.75-1.116 1.744-1.824 2.96-2.076.993-.204 1.944-.072 2.8.588.56.42.962.996 1.226 1.692.063.108.021.168-.106.204z" fill="#00ACD7"/><path d="M20.407 18.552c-.961-.024-1.838-.336-2.578-1.056-.624-.612-1.015-1.392-1.142-2.316-.19-1.356.138-2.556.856-3.624.772-1.152 1.702-1.752 2.96-2.004 1.078-.216 2.092-.096 3.012.612.835.648 1.352 1.524 1.49 2.676.18 1.62-.233 2.94-1.216 4.068a4.695 4.695 0 01-2.536 1.536c-.285.06-.57.072-.846.108zm2.516-4.848c-.01-.156-.01-.276-.032-.396-.19-1.188-1.152-1.86-2.156-1.596-.983.252-1.617.96-1.85 2.088-.19.936.212 1.884.973 2.268.581.288 1.162.252 1.723-.072.835-.492 1.289-1.26 1.342-2.292z" fill="#00ACD7"/></svg>