<svg width="28" height="27" fill="none" xmlns="http://www.w3.org/2000/svg"><path fill-rule="evenodd" clip-rule="evenodd" d="M.729 0h26.897v27H.729V0z" fill="#fff"/><path fill-rule="evenodd" clip-rule="evenodd" d="M11.944 14.25s-.643.375.458.501c1.333.153 2.014.131 3.482-.148 0 0 .387.243.927.454-3.293 1.416-7.453-.082-4.867-.808zm-.403-1.85s-.72.536.38.65c1.425.148 2.549.16 4.495-.216 0 0 .27.274.692.424-3.981 1.169-8.415.092-5.567-.857z" fill="#3174B9"/><path fill-rule="evenodd" clip-rule="evenodd" d="M14.934 9.265c.811.938-.213 1.782-.213 1.782s2.06-1.068 1.114-2.405c-.884-1.247-1.562-1.866 2.107-4.001 0 0-5.759 1.443-3.008 4.624z" fill="#CA3132"/><path fill-rule="evenodd" clip-rule="evenodd" d="M19.289 15.617s.476.394-.524.698c-1.9.578-7.91.752-9.58.023-.6-.262.525-.626.88-.702.368-.08.579-.066.579-.066-.667-.472-4.314.927-1.852 1.328 6.713 1.093 12.238-.492 10.497-1.28zm-7.036-5.131s-3.057.729-1.082.994c.834.112 2.495.086 4.044-.045 1.265-.106 2.535-.334 2.535-.334s-.446.192-.769.413c-3.105.82-9.102.438-7.375-.4 1.46-.71 2.647-.628 2.647-.628zm5.485 3.077c3.155-1.646 1.696-3.228.678-3.015-.25.052-.361.097-.361.097s.093-.146.27-.208c2.014-.711 3.564 2.097-.65 3.209 0 0 .048-.044.063-.083z" fill="#3174B9"/><path fill-rule="evenodd" clip-rule="evenodd" d="M15.835 1.191s1.747 1.756-1.658 4.454c-2.73 2.165-.623 3.4 0 4.81-1.595-1.444-2.765-2.715-1.98-3.898 1.152-1.736 4.343-2.578 3.638-5.366z" fill="#CA3132"/><path fill-rule="evenodd" clip-rule="evenodd" d="M12.563 18.024c3.03.194 7.681-.108 7.792-1.547 0 0-.212.545-2.504.978-2.585.488-5.775.432-7.666.118 0 0 .388.322 2.378.45z" fill="#3174B9"/><path fill-rule="evenodd" clip-rule="evenodd" d="M20.215 20.604h-.092v-.052h.248v.052h-.092v.26h-.064v-.26zm.496.013h-.001l-.092.246h-.042l-.09-.246h-.002v.246h-.061v-.31h.09l.084.22.084-.22h.09v.31h-.06v-.246zm-8.644 2.904c-.286.249-.588.389-.859.389-.386 0-.595-.233-.595-.606 0-.404.224-.699 1.122-.699h.332v.916zm.788.893V21.65c0-.706-.4-1.172-1.368-1.172a3.6 3.6 0 00-1.462.318l.116.49c.317-.117.727-.226 1.129-.226.557 0 .797.225.797.692v.349h-.278c-1.354 0-1.965.527-1.965 1.32 0 .683.402 1.071 1.16 1.071.487 0 .851-.202 1.191-.497l.062.42h.618zm2.632 0h-.983l-1.184-3.866h.859l.735 2.376.163.714c.37-1.033.634-2.081.765-3.09h.835c-.223 1.273-.626 2.67-1.19 3.866zm3.773-.893c-.287.249-.589.389-.86.389-.386 0-.595-.233-.595-.606 0-.404.224-.699 1.122-.699h.333v.916zm.788.893V21.65c0-.706-.402-1.172-1.369-1.172a3.6 3.6 0 00-1.462.318l.116.49c.317-.117.728-.226 1.13-.226.556 0 .796.225.796.692v.349h-.278c-1.354 0-1.965.527-1.965 1.32 0 .683.402 1.071 1.16 1.071.488 0 .851-.202 1.192-.497l.062.42h.618zm-11.089.657c-.224.33-.588.59-.985.738l-.39-.46c.303-.156.563-.408.683-.642.104-.209.148-.477.148-1.12v-4.414h.838v4.353c0 .86-.069 1.207-.294 1.545z" fill="#CA3132"/></svg>