<svg width="28" height="27" fill="none" xmlns="http://www.w3.org/2000/svg"><g clip-path="url(#clip0)"><path d="M25 0H3.355A2.632 2.632 0 00.729 2.637v21.726A2.632 2.632 0 003.356 27h21.643c1.45 0 2.627-1.18 2.627-2.637V2.637A2.632 2.632 0 0024.999 0z" fill="#3178C6"/><path d="M25 0H3.355A2.632 2.632 0 00.729 2.637v21.726A2.632 2.632 0 003.356 27h21.643c1.45 0 2.627-1.18 2.627-2.637V2.637A2.632 2.632 0 0024.999 0z" fill="#3178C6"/><path fill-rule="evenodd" clip-rule="evenodd" d="M17.379 21.485v2.64c.427.22.933.385 1.517.495.583.11 1.199.165 1.845.165.63 0 1.23-.06 1.797-.181a4.392 4.392 0 001.492-.598 3.034 3.034 0 001.015-1.09c.25-.448.374-1.002.374-1.662 0-.478-.07-.898-.213-1.258a2.942 2.942 0 00-.617-.96 4.519 4.519 0 00-.966-.756 10.347 10.347 0 00-1.27-.63 15.922 15.922 0 01-.93-.417 4.718 4.718 0 01-.698-.413 1.796 1.796 0 01-.444-.445.94.94 0 01-.156-.533c0-.181.046-.345.14-.49.093-.146.224-.271.394-.376.17-.104.378-.185.625-.243.247-.058.52-.087.822-.087a5.481 5.481 0 011.43.202c.247.07.487.156.72.26.233.105.448.226.645.363v-2.466a6.397 6.397 0 00-1.31-.343 10.638 10.638 0 00-1.633-.111 7.56 7.56 0 00-1.776.202 4.508 4.508 0 00-1.476.631c-.424.286-.76.65-1.007 1.093-.246.443-.37.972-.37 1.588 0 .787.226 1.458.679 2.013.452.556 1.138 1.026 2.06 1.41.361.15.698.295 1.01.438.313.143.583.292.81.446.228.154.407.321.539.503a1.028 1.028 0 01.074 1.093 1.096 1.096 0 01-.374.38 2.045 2.045 0 01-.625.25c-.25.062-.541.092-.876.092a5.051 5.051 0 01-3.248-1.204zm-4.421-6.504h3.373v-2.166H6.928v2.166h3.357v9.646h2.673v-9.646z" fill="#fff"/></g><defs><clipPath id="clip0"><path fill="#fff" transform="translate(.729)" d="M0 0h26.897v27H0z"/></clipPath></defs></svg>