<svg width="28" height="27" fill="none" xmlns="http://www.w3.org/2000/svg"><g clip-path="url(#clip0)"><path d="M14.08 0c-6.827 0-6.4 2.988-6.4 2.988l.007 3.096h6.516v.929H5.098s-4.37-.5-4.37 6.452 3.815 6.706 3.815 6.706h2.276v-3.226s-.123-3.849 3.752-3.849h6.463s3.63.06 3.63-3.54V3.601S21.217 0 14.08 0zm-3.592 2.082c.648 0 1.172.528 1.172 1.183 0 .654-.524 1.182-1.172 1.182a1.177 1.177 0 01-1.173-1.182c0-.655.524-1.183 1.173-1.183z" fill="url(#paint0_linear)"/><path d="M14.274 27c6.829 0 6.402-2.988 6.402-2.988l-.007-3.096h-6.516v-.929h9.104s4.369.5 4.369-6.452-3.814-6.706-3.814-6.706h-2.276v3.226s.123 3.849-3.753 3.849h-6.462s-3.631-.06-3.631 3.54v5.954S7.139 27 14.274 27zm3.593-2.082a1.177 1.177 0 01-1.172-1.183c0-.654.524-1.182 1.172-1.182.649 0 1.172.528 1.172 1.182 0 .655-.523 1.183-1.172 1.183z" fill="url(#paint1_linear)"/></g><defs><linearGradient id="paint0_linear" x1="3.314" y1="2.36" x2="16.734" y2="15.704" gradientUnits="userSpaceOnUse"><stop stop-color="#387EB8"/><stop offset="1" stop-color="#366994"/></linearGradient><linearGradient id="paint1_linear" x1="11.495" y1="10.926" x2="25.903" y2="24.605" gradientUnits="userSpaceOnUse"><stop stop-color="#FFE052"/><stop offset="1" stop-color="#FFC331"/></linearGradient><clipPath id="clip0"><path fill="#fff" transform="translate(.729)" d="M0 0h26.897v27H0z"/></clipPath></defs></svg>