<svg width="28" height="27" fill="none" xmlns="http://www.w3.org/2000/svg"><path d="M14 4.44c-4.868 0-8.83 3.979-8.83 8.863 0 4.884 3.964 8.863 8.83 8.863s8.83-3.979 8.83-8.863c0-4.884-3.964-8.863-8.83-8.863zm-.013.787a.577.577 0 01.564.584.584.584 0 01-.58.583.58.58 0 01-.582-.583.584.584 0 01.598-.584zm1.33.96a7.134 7.134 0 012.83 1.209 7.166 7.166 0 012.064 2.29l-.686 1.553a.537.537 0 00.269.703l1.319.587c.04.414.046.83.015 1.245h-.734c-.073 0-.103.048-.103.12v.337c0 .795-.447.97-.839 1.013-.373.043-.786-.158-.839-.387-.22-1.243-.586-1.507-1.165-1.966.72-.458 1.466-1.135 1.466-2.039 0-.976-.667-1.591-1.12-1.893-.64-.422-1.345-.507-1.536-.507H8.675a7.142 7.142 0 013.999-2.265l.895.942a.525.525 0 00.747.017l1-.959zM7.06 10.504a.58.58 0 01.564.583.584.584 0 01-.58.583.58.58 0 01-.582-.583.585.585 0 01.598-.583zm13.85.026a.58.58 0 01.564.583.584.584 0 01-.58.583.58.58 0 01-.582-.583.585.585 0 01.598-.583zm-12.756.094h1.013v4.582H7.124a7.202 7.202 0 01-.231-2.74l1.251-.558a.532.532 0 00.27-.701l-.259-.583zm4.226.048h2.41c.126 0 .88.145.88.713 0 .47-.578.64-1.055.64H12.38l.002-1.353zm0 3.293h1.847c.168 0 .902.049 1.136.99.072.289.235 1.23.345 1.532.11.337.557 1.012 1.033 1.012h3.015a7.171 7.171 0 01-.662.77l-1.227-.265a.53.53 0 00-.63.408l-.29 1.365a7.124 7.124 0 01-5.96-.028l-.292-1.365a.529.529 0 00-.628-.408l-1.2.258a7.167 7.167 0 01-.621-.735h5.84c.066 0 .11-.01.11-.073v-2.074c0-.06-.044-.073-.11-.073H12.38l.002-1.314zm-2.696 4.75a.58.58 0 01.564.582.585.585 0 01-.58.584.58.58 0 01-.581-.584.585.585 0 01.597-.583zm8.602.026a.58.58 0 01.564.583.584.584 0 01-.581.583.58.58 0 01-.581-.583.586.586 0 01.37-.544.578.578 0 01.228-.04z" fill="#000"/><path fill-rule="evenodd" clip-rule="evenodd" d="M22.336 13.303c0 2.22-.878 4.348-2.441 5.917A8.32 8.32 0 0114 21.671a8.32 8.32 0 01-5.895-2.45 8.384 8.384 0 01-2.441-5.918c0-2.22.878-4.348 2.441-5.917A8.32 8.32 0 0114 4.936a8.32 8.32 0 015.895 2.45 8.385 8.385 0 012.441 5.917zm-.157-.808l1.3.808-1.3.808 1.117 1.048-1.43.539.892 1.247-1.51.247.634 1.399-1.53-.055.352 1.497-1.49-.353.053 1.536-1.393-.638-.247 1.517-1.242-.896-.536 1.436-1.044-1.121L14 22.819l-.805-1.305-1.044 1.121-.536-1.436-1.242.896-.247-1.517-1.393.638.054-1.536-1.49.353.35-1.497-1.53.055.636-1.399-1.511-.247.893-1.247-1.431-.539 1.117-1.048-1.3-.808 1.3-.808-1.117-1.048 1.43-.538-.892-1.247 1.51-.248-.634-1.398 1.53.054-.352-1.496 1.49.352-.053-1.535 1.393.637.247-1.517 1.242.897.536-1.437 1.044 1.122L14 3.788l.805 1.305 1.044-1.122.536 1.437 1.242-.897.247 1.517 1.393-.637-.054 1.535 1.49-.352-.35 1.496 1.53-.054-.636 1.398 1.511.248-.892 1.247 1.43.538-1.117 1.048z" fill="#000" stroke="#000" stroke-width="3" stroke-linecap="round" stroke-linejoin="round"/></svg>