<svg width="28" height="27" fill="none" xmlns="http://www.w3.org/2000/svg"><g clip-path="url(#clip0)"><path d="M25.899 3.57C22.91-.023 16.96-1.075 12.683 1.19l-7.54 4.027C3.087 6.293 1.661 8.054 1.25 10.045a6.419 6.419 0 00.905 4.874c-.658.824-1.097 1.739-1.289 2.7-.439 2.036.137 4.141 1.563 5.812 3.016 3.592 8.938 4.645 13.215 2.38l7.54-4.005c2.056-1.075 3.482-2.837 3.893-4.828a6.418 6.418 0 00-.904-4.874c.658-.823 1.096-1.739 1.288-2.7.466-2.059-.11-4.164-1.562-5.834z" fill="#FF3E00"/><path d="M11.943 23.774c-2.44.526-4.99-.275-6.416-1.99-.877-1.008-1.206-2.266-.96-3.502.055-.206.11-.389.165-.595l.137-.366.384.229c.905.55 1.892.961 2.961 1.236l.274.068-.027.23c-.028.32.082.663.301.937.44.526 1.207.778 1.947.618.165-.046.33-.091.466-.16l7.513-4.004c.384-.206.63-.504.713-.87a1.237 1.237 0 00-.275-1.052c-.438-.527-1.206-.756-1.946-.595-.165.045-.33.091-.466.16l-2.88 1.533a5.675 5.675 0 01-1.535.549c-2.44.526-4.99-.275-6.415-1.99-.85-1.007-1.207-2.266-.933-3.502.247-1.19 1.124-2.265 2.358-2.905l7.54-4.005a6.608 6.608 0 011.535-.572c2.44-.526 4.99.275 6.416 1.991.878 1.007 1.207 2.265.96 3.5a5 5 0 01-.192.596l-.137.366-.384-.229a10.892 10.892 0 00-2.961-1.236l-.274-.068.027-.229a1.347 1.347 0 00-.301-.938c-.44-.526-1.207-.755-1.947-.595a2.655 2.655 0 00-.466.16l-7.513 4.004c-.384.206-.63.504-.713.87-.082.366.028.755.275 1.052.438.527 1.206.755 1.946.595.165-.045.33-.091.466-.16l2.88-1.533A6.607 6.607 0 0116 10.8c2.44-.526 4.99.275 6.415 1.99.878 1.008 1.207 2.266.96 3.502-.247 1.19-1.124 2.265-2.358 2.905l-7.54 4.005a6.61 6.61 0 01-1.535.572z" fill="#fff"/></g><defs><clipPath id="clip0"><path fill="#fff" transform="translate(.729)" d="M0 0h26.897v27H0z"/></clipPath></defs></svg>